<?xml version="1.0" standalone="no"?>
<!DOCTYPE svg PUBLIC "-//W3C//DTD SVG 1.1//EN" "http://www.w3.org/Graphics/SVG/1.1/DTD/svg11.dtd" >
<svg xmlns="http://www.w3.org/2000/svg">
<metadata></metadata>
<defs>
<font id="ubuntu_monobold_italic" horiz-adv-x="1024" >
<font-face units-per-em="2048" ascent="1638" descent="-410" />
<missing-glyph horiz-adv-x="500" />
<glyph unicode="&#xd;" />
<glyph />
<glyph />
<glyph unicode=" " />
<glyph unicode="!" d="M338 129q0 43 15.5 78t41 59.5t59 37.5t68.5 13q66 0 109 -37.5t43 -113.5q0 -41 -15.5 -76t-41 -60.5t-58.5 -40t-70 -14.5q-63 0 -107 39t-44 115zM467 461q6 70 13 130t15.5 117.5t19.5 114t28 117.5l78 328h290l-82 -342q-18 -74 -34.5 -133.5t-35 -112.5t-39 -105.5 t-44.5 -113.5h-209z" />
<glyph unicode="&#x22;" d="M395 815q2 51 5 113.5t9.5 127t15.5 126t21 112.5l21 97h266l-31 -129q-10 -47 -28.5 -103.5t-41 -116t-47 -118t-46.5 -109.5h-144zM799 815q2 51 6 113.5t10 127t14.5 126t20.5 112.5l22 97h265l-29 -129q-10 -47 -28.5 -103.5t-41 -116t-47 -118t-49.5 -109.5h-143z " />
<glyph unicode="#" d="M66 0l124 313h-122l49 205h157l95 234h-195l49 204h228l124 312h205l-125 -312h170l125 312h205l-127 -312h133l-49 -204h-164l-94 -234h201l-49 -205h-234l-127 -313h-205l127 313h-172l-125 -313h-204zM479 518h170l94 234h-170z" />
<glyph unicode="$" d="M96 119l103 188q45 -29 120.5 -57.5t163.5 -28.5q41 0 83 5t76 20.5t54.5 44t20.5 76.5q0 33 -13.5 56t-36 42.5t-52 36t-62.5 33.5q-78 37 -129 75.5t-83 80.5t-45 90t-13 104q0 61 22.5 118.5t68.5 103.5t116.5 79t168.5 43l50 190h211l-50 -194q72 -16 131.5 -39 t96.5 -45l-101 -180q-51 35 -118.5 53t-133.5 18q-84 0 -145 -33.5t-61 -101.5q0 -51 34.5 -88t126.5 -82q51 -27 100.5 -57.5t87.5 -70.5t60.5 -92t22.5 -122q0 -168 -106.5 -258t-280.5 -107l-52 -219h-213l54 222q-96 14 -168 43.5t-109 52.5z" />
<glyph unicode="%" d="M8 0l1061 1268h182l-1058 -1268h-185zM188 864q0 63 16.5 139t52.5 140.5t94.5 108.5t142.5 44q78 0 128 -56t50 -148q0 -63 -16.5 -138t-52.5 -140.5t-94 -110t-142 -44.5q-78 0 -128.5 56.5t-50.5 148.5zM346 893q0 -47 15.5 -61.5t33.5 -14.5q31 0 52.5 30t37 69.5 t22.5 81.5t7 67q0 45 -16.5 59.5t-32.5 14.5q-31 0 -52.5 -30t-37 -70t-22.5 -80.5t-7 -65.5zM590 176q0 63 16.5 138t52 139.5t94 108.5t142.5 44q78 0 127 -56t49 -149q0 -63 -16.5 -138t-52 -139.5t-94 -108.5t-142.5 -44q-78 0 -127 56.5t-49 148.5zM745 203 q0 -45 16.5 -59.5t33.5 -14.5q31 0 53 28.5t37.5 68.5t22.5 82t7 67q0 47 -16.5 61.5t-34.5 14.5q-31 0 -52 -30t-36.5 -70t-23 -82t-7.5 -66z" />
<glyph unicode="&#x26;" d="M92 264q0 68 17.5 122t51.5 101.5t85 91.5t116 91l23 16q-27 49 -42 101.5t-15 105.5q0 92 29.5 166t82 127t125 81.5t156.5 28.5q133 0 198.5 -64.5t65.5 -178.5q0 -45 -13.5 -93.5t-49 -100.5t-97 -106.5t-157.5 -111.5l-11 -6l129 -193q33 49 56.5 110.5t44.5 127.5 l188 -23q-31 -131 -83 -222t-99 -156q27 -55 53.5 -124t48.5 -155h-231q-10 41 -17.5 64.5t-17.5 52.5q-78 -74 -165 -104.5t-179 -30.5q-76 0 -131 22.5t-91 60t-53.5 89t-17.5 110.5zM315 301q0 -53 34 -92t95 -39q53 0 109.5 28.5t95.5 71.5q-29 51 -79 126t-99 149 q-51 -29 -82 -60.5t-47 -64.5t-21.5 -63.5t-5.5 -55.5zM535 915q0 -47 8 -79.5t24 -65.5l17 8q115 57 156.5 125t41.5 121q0 35 -19.5 60.5t-66.5 25.5q-68 0 -114.5 -52t-46.5 -143z" />
<glyph unicode="'" d="M573 778q2 53 6.5 116.5t10.5 128t15 127t22 114.5l30 127h271l-39 -160q-25 -102 -73 -224t-95 -229h-148z" />
<glyph unicode="(" d="M279 322q0 186 55 355t153.5 313.5t231.5 262t287 201.5l92 -178q-137 -86 -245 -197.5t-182.5 -235.5t-114.5 -253t-40 -250q0 -156 47 -284t168 -255l-151 -149q-66 55 -121.5 130t-95 161t-62 182t-22.5 197z" />
<glyph unicode=")" d="M88 -170q137 86 244.5 197.5t182.5 235.5t115 253t40 250q0 156 -48.5 284t-166.5 255l151 149q66 -55 121 -130t95 -161t62.5 -182t22.5 -197q0 -188 -55 -356t-153.5 -312.5t-231.5 -262t-287 -201.5z" />
<glyph unicode="*" d="M252 881l76 223l59 -19q25 -8 55.5 -25.5t61.5 -38t60.5 -40.5t49.5 -37q-10 25 -20 58.5t-18.5 70.5t-14.5 72t-6 59v64h238v-64q0 -25 -6.5 -59.5t-15.5 -71.5t-20.5 -70.5t-19.5 -58.5q20 14 50 34.5t63 40t63.5 36t55.5 24.5l59 21l74 -228l-62 -18q-25 -8 -59.5 -12 t-71.5 -7.5t-72.5 -3.5h-62.5q23 -14 51.5 -35.5t57 -45t53 -48t39.5 -45.5l39 -51l-193 -139l-37 51q-14 20 -29.5 51t-29.5 67t-26.5 69.5t-18.5 60.5q-6 -25 -18.5 -59.5t-26 -69.5t-28.5 -65.5t-30 -51.5l-39 -51l-192 137l39 51q14 20 39.5 45t53.5 49.5t56.5 46 t49.5 36.5h-63t-72.5 3t-71.5 9t-58 14z" />
<glyph unicode="+" d="M137 434l51 207h322l84 356h217l-84 -356h322l-52 -207h-321l-84 -356h-217l84 356h-322z" />
<glyph unicode="," d="M197 -147q43 2 86 11t80.5 26.5t65.5 40t38 53.5q-61 8 -97 48t-36 105q0 88 57.5 146.5t143.5 58.5q80 0 119.5 -48t39.5 -114q0 -90 -28.5 -174t-88 -151.5t-150.5 -111.5t-214 -52z" />
<glyph unicode="-" d="M285 401l59 248h561l-61 -248h-559z" />
<glyph unicode="." d="M334 139q0 45 16.5 82t44 63.5t63 42t72.5 15.5q72 0 118 -41t46 -121q0 -45 -16 -83t-44 -64.5t-63.5 -42t-72.5 -15.5q-72 0 -118 41t-46 123z" />
<glyph unicode="/" d="M-23 -338l947 1770h264l-946 -1770h-265z" />
<glyph unicode="0" d="M145 367q0 80 12.5 180t41 203.5t74.5 202t113 175t157 122.5t207 46q164 0 256 -106.5t92 -286.5q0 -80 -12.5 -180t-41 -203.5t-74.5 -202t-112.5 -175t-157 -123t-204.5 -46.5q-82 0 -146.5 28t-109.5 80t-70 123.5t-25 162.5zM379 381q0 -84 30.5 -140.5t108.5 -56.5 q57 0 105.5 34t87.5 90.5t67.5 129t48 151.5t28.5 156.5t9 143.5q0 84 -29.5 140t-107.5 56q-57 0 -106.5 -33.5t-88 -90t-67.5 -130t-48.5 -151.5t-28.5 -156t-9 -143zM510 612q0 45 14.5 79t35 56.5t45 34t44.5 11.5q51 0 72.5 -28t21.5 -67q0 -45 -14 -78.5t-34.5 -55 t-44.5 -33t-44 -11.5q-51 0 -73.5 26.5t-22.5 65.5z" />
<glyph unicode="1" d="M131 0l49 209h266l177 733q-70 -47 -150 -86t-133 -57l-59 205q55 18 117.5 46.5t126 63.5t123 74t106.5 80h198l-254 -1059h252l-49 -209h-770z" />
<glyph unicode="2" d="M84 0q12 109 48 194t91.5 154.5t127 130t157.5 121.5q88 63 150.5 111.5t101.5 88.5t57.5 76.5t18.5 77.5q0 55 -33 89t-107 34t-154.5 -31.5t-158.5 -91.5l-82 183q106 84 221 121.5t226 37.5q82 0 145 -23.5t106 -64.5t65.5 -94t22.5 -115q0 -90 -34.5 -163.5t-91 -136 t-130 -118t-151.5 -110.5q-119 -82 -187.5 -142.5t-103.5 -119.5h565l-49 -209h-821z" />
<glyph unicode="3" d="M61 61l86 197q57 -35 135 -57.5t160 -22.5q57 0 108.5 11.5t90.5 38t62.5 69.5t23.5 106q0 84 -64.5 123t-179.5 39h-84l52 199h104q41 0 87 9t86 32.5t65.5 61.5t25.5 96q0 61 -46 94t-118 33q-53 0 -118.5 -19.5t-130.5 -56.5l-64 184q86 45 181 71.5t177 26.5 q76 0 142.5 -17t117 -52t79 -87.5t28.5 -123.5q0 -113 -65.5 -203t-206.5 -145q94 -43 139 -116t45 -159q0 -76 -28.5 -150.5t-94 -135t-171 -97.5t-257.5 -37q-100 0 -191.5 20.5t-175.5 67.5z" />
<glyph unicode="4" d="M82 299l45 188q57 80 144 180.5t186.5 206t206 208t204.5 186.5h246l-184 -768h135l-49 -201h-135l-72 -299h-238l70 299h-559zM354 500h338l119 491q-115 -106 -236.5 -236t-220.5 -255z" />
<glyph unicode="5" d="M66 59l94 203q66 -41 137.5 -60.5t138.5 -19.5q291 0 291 221q0 92 -107.5 146.5t-355.5 58.5q59 174 112.5 339t94.5 321h666l-50 -209h-462q-20 -76 -43 -147.5t-41 -118.5q113 -10 194.5 -42t135 -81t80 -112.5t26.5 -133.5q0 -205 -135 -328t-400 -123 q-98 0 -194 20.5t-182 65.5z" />
<glyph unicode="6" d="M154 418q0 162 54 316.5t167.5 275t289 193.5t414.5 73q10 0 29.5 -1t30.5 -1l-29 -201q-106 0 -206.5 -14.5t-186.5 -51t-154.5 -104t-111.5 -174.5q66 39 136 54.5t122 15.5q68 0 126 -21.5t102 -63.5t69.5 -104.5t25.5 -146.5q0 -119 -39 -210t-104.5 -153.5 t-152.5 -94.5t-183 -32q-84 0 -157.5 29t-127 85t-84 139t-30.5 192zM393 414q0 -47 11.5 -90t34 -75t56 -50.5t80.5 -18.5q98 0 158 70.5t60 193.5q0 49 -14.5 81t-39 50.5t-56.5 26.5t-69 8q-49 0 -100 -12t-98 -31q-10 -37 -16.5 -74.5t-6.5 -78.5z" />
<glyph unicode="7" d="M242 0q37 137 105.5 284.5t152.5 288t177 264.5t181 216h-575l51 215h883l-46 -185q-72 -59 -167 -170.5t-191 -257t-180 -313.5t-133 -342h-258z" />
<glyph unicode="8" d="M127 283q0 59 16.5 109t51 96.5t90 90.5t133.5 93q-47 49 -80 104t-33 131q0 72 26.5 141.5t82 125t139.5 89t199 33.5q76 0 140 -21.5t111.5 -59t75 -92t27.5 -122.5q0 -41 -10.5 -85t-39 -90t-81.5 -93t-141 -90q68 -47 115.5 -110.5t47.5 -163.5q0 -82 -31.5 -154 t-93 -126t-152.5 -85t-210 -31q-66 0 -134.5 16.5t-123.5 52.5t-90 95.5t-35 145.5zM367 315q0 -72 50 -107.5t122 -35.5q43 0 81.5 13.5t68.5 38t47.5 60t17.5 78.5q0 78 -53.5 124t-131.5 87q-63 -31 -102 -62.5t-61.5 -64t-30.5 -65.5t-8 -66zM537 924q0 -66 40.5 -109 t98.5 -78q117 55 155.5 112.5t38.5 113.5q0 66 -39.5 99.5t-111.5 33.5q-86 0 -134 -49t-48 -123z" />
<glyph unicode="9" d="M113 -4l30 199q106 0 206 14t186 53t154.5 107.5t111.5 179.5q-66 -39 -137.5 -54.5t-124.5 -15.5q-68 0 -126.5 20.5t-102.5 62.5t-69.5 103.5t-25.5 145.5q0 119 39 210t104.5 152.5t152.5 92t183 30.5q84 0 158 -28.5t128 -85t85 -139t31 -191.5q0 -164 -54.5 -318.5 t-168 -274.5t-286.5 -193.5t-413 -73.5q-10 0 -29.5 1t-31.5 3zM455 829q0 -94 53 -128.5t127 -34.5q47 0 99 12t100 31q10 39 15 74.5t5 74.5q0 94 -44 160.5t-136 66.5q-98 0 -158.5 -63.5t-60.5 -192.5z" />
<glyph unicode=":" d="M334 139q0 45 16.5 82t44 63.5t63 42t72.5 15.5q72 0 118 -41t46 -121q0 -45 -16 -83t-44 -64.5t-63.5 -42t-72.5 -15.5q-72 0 -118 41t-46 123zM481 760q0 45 16.5 82t44 63.5t63 42t72.5 15.5q72 0 118 -41t46 -121q0 -45 -16 -83t-44 -64.5t-63.5 -42t-72.5 -15.5 q-72 0 -118 41t-46 123z" />
<glyph unicode=";" d="M197 -147q43 2 86 11t80.5 26.5t65.5 40t38 53.5q-61 8 -97 48t-36 105q0 88 57.5 146.5t143.5 58.5q80 0 119.5 -48t39.5 -114q0 -90 -28.5 -174t-88 -151.5t-150.5 -111.5t-214 -52zM481 760q0 45 16.5 82t44 63.5t63 42t72.5 15.5q72 0 118 -41t46 -121q0 -45 -16 -83 t-44 -64.5t-63.5 -42t-72.5 -15.5q-72 0 -118 41t-46 123z" />
<glyph unicode="&#x3c;" d="M160 436l49 203l866 332l19 -226l-635 -221l522 -239l-104 -195z" />
<glyph unicode="=" d="M92 233l49 209h860l-49 -209h-860zM186 633l52 209h858l-49 -209h-861z" />
<glyph unicode="&#x3e;" d="M109 315l634 222l-522 239l105 195l716 -346l-49 -203l-866 -332z" />
<glyph unicode="?" d="M315 129q0 43 15.5 78t41 59.5t59.5 37.5t69 13q66 0 108.5 -37.5t42.5 -113.5q0 -41 -15 -76t-41 -60.5t-58.5 -40t-69.5 -14.5q-63 0 -107.5 39t-44.5 115zM393 1202q84 45 174 69.5t189 24.5q90 0 152.5 -20.5t102.5 -56t58 -82.5t18 -103q0 -61 -18 -109t-50 -89 t-75 -77t-94 -71q-47 -35 -80 -59.5t-56.5 -49t-40 -52t-28.5 -66.5h-233q14 94 64 165.5t165 153.5q49 37 83 62.5t53.5 48t28.5 46.5t9 54q0 94 -129 94q-68 0 -125 -21.5t-137 -55.5z" />
<glyph unicode="@" d="M113 301q0 215 50 397.5t140 315.5t214 207.5t274 74.5q184 0 270 -80.5t86 -232.5q0 -39 -7 -87t-18 -93l-166 -690q-57 -18 -118.5 -29.5t-114.5 -11.5q-66 0 -120 17t-93 56t-60.5 100.5t-21.5 149.5q0 94 24.5 186.5t75 164t125 116.5t172.5 45q35 0 62.5 -6 t42.5 -10q6 23 10 48.5t4 41.5q0 63 -44 101t-120 38q-96 0 -183 -54t-152.5 -157.5t-103.5 -251t-38 -331.5q0 -227 90 -325.5t248 -98.5q88 0 140.5 11t68.5 15l-14 -176q-53 -12 -108.5 -20t-115.5 -8q-242 0 -370.5 141t-128.5 436zM633 397q0 -66 28.5 -98.5 t81.5 -32.5h17.5t19.5 4l103 428q-16 12 -52 13q-53 0 -91 -28t-61.5 -73t-34.5 -100t-11 -113z" />
<glyph unicode="A" d="M-12 0q174 381 335.5 699.5t315.5 568.5h268q29 -242 46.5 -511.5t21.5 -574.5v-182h-254l8 295h-360q-31 -70 -64 -143.5t-61 -151.5h-256zM463 498h270q1 69 1 127v55q-1 78 -3 138.5t-5 110.5t-5 99q-27 -51 -52.5 -100t-55 -109.5t-66.5 -138.5t-84 -182z" />
<glyph unicode="B" d="M80 27l293 1216q41 10 87 17.5t90 12.5t85 7t72 2q88 0 159.5 -16.5t122.5 -53t80 -93t29 -136.5q0 -92 -50.5 -177t-181.5 -136q86 -41 125 -101.5t39 -150.5q0 -98 -39 -178t-115.5 -136.5t-190.5 -88t-261 -31.5q-31 0 -73 2t-89 7t-95 13t-87 21zM369 207 q23 -4 58.5 -6t86.5 -2q37 0 84 10t88 34.5t69.5 67.5t28.5 109q0 82 -55 109.5t-143 27.5h-133zM504 760h78q51 0 100 9t88 31.5t63.5 59.5t24.5 90q0 66 -45 92.5t-125 26.5q-33 0 -62.5 -1t-52.5 -5z" />
<glyph unicode="C" d="M180 420q0 154 42 310.5t126 282.5t212 204.5t300 78.5q66 0 117 -12t90 -27.5t63.5 -33t34.5 -25.5l-94 -194q-41 31 -96 52t-141 21q-100 0 -175 -59.5t-125.5 -151.5t-75 -203.5t-24.5 -218.5q0 -55 11.5 -100t37 -79t67.5 -52t103 -18q94 0 157.5 22.5t104.5 46.5 l29 -203q-53 -33 -145 -60.5t-209 -27.5q-104 0 -182 32t-128.5 90.5t-75 141t-24.5 183.5z" />
<glyph unicode="D" d="M63 14l299 1237q90 18 153 24.5t128 6.5q205 0 322.5 -115.5t117.5 -328.5q0 -164 -38.5 -318.5t-124.5 -273.5t-222.5 -190.5t-328.5 -71.5q-66 0 -150 7t-156 23zM362 205q10 -2 22.5 -2h23.5q117 0 197.5 60.5t129.5 153.5t71.5 203.5t22.5 208.5q0 49 -8 92.5 t-28.5 75t-57.5 49t-94 17.5q-37 0 -74 -6z" />
<glyph unicode="E" d="M109 0l303 1268h751l-49 -209h-500l-69 -285h434l-49 -209h-434l-86 -356h544l-49 -209h-796z" />
<glyph unicode="F" d="M117 0l303 1268h778l-49 -209h-524l-76 -307h459l-50 -209h-458l-131 -543h-252z" />
<glyph unicode="G" d="M160 420q0 154 44 310.5t131 282.5t218 204.5t307 78.5q66 0 117 -12t90 -27.5t63.5 -33t34.5 -25.5l-94 -194q-41 31 -96 52t-141 21q-104 0 -183.5 -59.5t-132.5 -151.5t-79.5 -203.5t-26.5 -218.5q0 -111 41 -181t139 -70q27 0 52.5 2t47.5 6l111 463h252l-152 -633 q-47 -16 -146 -37t-218 -21q-190 0 -284.5 117t-94.5 330z" />
<glyph unicode="H" d="M53 0l305 1268h252l-121 -500h338l121 500h252l-305 -1268h-254l137 559h-338l-135 -559h-252z" />
<glyph unicode="I" d="M72 0l49 209h278l205 850h-278l49 209h805l-50 -209h-274l-205 -850h275l-49 -209h-805z" />
<glyph unicode="J" d="M76 113l129 182q41 -37 97 -69.5t128 -32.5q98 0 162.5 52t99.5 193l148 621h-410l49 209h662l-201 -844q-23 -96 -57.5 -179t-92 -143.5t-144.5 -94.5t-212 -34q-66 0 -122 13.5t-100 34t-79 45t-57 47.5z" />
<glyph unicode="K" d="M63 0l304 1268h254l-127 -527q63 57 127.5 126t124 139.5t111.5 138t89 123.5h289q-47 -63 -106.5 -139t-129 -157t-147.5 -161t-160 -152q49 -61 94 -138t83 -164t68 -178t48 -179h-264q-14 72 -42 155t-63.5 162.5t-76.5 150.5t-82 120l-142 -588h-252z" />
<glyph unicode="L" d="M92 0l303 1268h252l-254 -1059h535l-49 -209h-787z" />
<glyph unicode="M" d="M12 0q43 156 89 324t93.5 334.5t93.5 322.5t91 287h217q4 -43 11 -114t13.5 -151.5t11.5 -166.5t9 -160l307 592h232q-41 -309 -103.5 -623.5t-134.5 -644.5h-231l254 995l-283 -546h-178q-4 135 -13.5 274t-19.5 262l-227 -985h-232z" />
<glyph unicode="N" d="M53 0l303 1268h215q29 -90 61 -196.5t59.5 -215t51 -215t37.5 -195.5l195 822h223l-303 -1268h-205q-35 211 -83 432t-113 477l-218 -909h-223z" />
<glyph unicode="O" d="M137 367q0 80 12.5 180t42 203.5t75.5 202t115 175t160 122.5t210 46q166 0 260 -107.5t94 -285.5q0 -80 -12.5 -180t-41 -203.5t-75.5 -202t-114.5 -175t-159 -123t-209.5 -46.5q-168 0 -262.5 107.5t-94.5 286.5zM389 385q0 -80 27.5 -136t105.5 -56q84 0 146.5 71.5 t103.5 177t61.5 225t20.5 218.5q0 80 -27.5 136t-103.5 56q-84 0 -147.5 -71.5t-104.5 -177t-61.5 -226.5t-20.5 -217z" />
<glyph unicode="P" d="M78 0l301 1251q96 16 181 23.5t151 7.5q113 0 193.5 -25.5t133 -72.5t76 -111.5t23.5 -140.5q0 -129 -48.5 -224.5t-134.5 -157t-204.5 -91t-262.5 -29.5h-53l-104 -430h-252zM485 647h62q166 0 251 65.5t85 182.5q0 78 -43 123t-162 45q-29 0 -47.5 -1t-46.5 -5z" />
<glyph unicode="Q" d="M139 367q0 80 12.5 180t41 203.5t75.5 202t115 175t159 122.5t210 46q166 0 259 -107.5t93 -285.5q0 -76 -11.5 -170t-36 -192.5t-66.5 -193.5t-101.5 -173t-140 -130t-185.5 -67v-14q0 -59 83 -94t206 -49l-78 -168q-205 29 -308.5 99.5t-103.5 205.5v16.5t3 18.5 q-109 39 -167.5 136t-58.5 239zM389 385q0 -80 27.5 -136t105.5 -56q84 0 146.5 71.5t103.5 177t61.5 225t20.5 218.5q0 80 -27.5 136t-103.5 56q-84 0 -147.5 -71.5t-104.5 -177t-61.5 -226.5t-20.5 -217z" />
<glyph unicode="R" d="M70 0l297 1247q39 8 83 15.5t87 11.5t81.5 6t69.5 2q203 0 303.5 -89t100.5 -241q0 -72 -19.5 -140.5t-59.5 -126.5t-98.5 -102.5t-134.5 -64.5q31 -51 58.5 -114.5t52 -132t44 -138.5t32.5 -133h-246q-23 123 -64 237.5t-96 229.5h-131l-113 -467h-247zM479 676h94 q53 0 101.5 14.5t85.5 45t58.5 77.5t21.5 111q0 72 -43 110.5t-148 38.5q-23 0 -41 -2t-35 -6z" />
<glyph unicode="S" d="M63 84l109 192q20 -12 52 -28.5t72 -30.5t87 -23.5t100 -9.5q47 0 90 9.5t75 31t51.5 54t19.5 81.5q0 37 -15.5 67t-42 54.5t-62.5 45t-77 40.5q-51 27 -95 53.5t-76 63.5t-50 88t-18 125q0 180 121.5 289.5t347.5 109.5q74 0 132 -10t103 -24.5t77 -31t52 -28.5 l-106 -194q-47 33 -119 55t-172 22q-78 0 -132.5 -34.5t-54.5 -120.5q0 -70 46.5 -106t111.5 -64q61 -29 112.5 -59.5t88.5 -71.5t58.5 -96.5t21.5 -131.5q0 -209 -134.5 -318.5t-379.5 -109.5q-82 0 -146.5 12.5t-111.5 29t-81 36t-55 33.5z" />
<glyph unicode="T" d="M264 1059l49 209h922l-49 -209h-336l-254 -1059h-252l254 1059h-334z" />
<glyph unicode="U" d="M137 299q0 84 25 188l188 781h252l-186 -779q-10 -47 -18.5 -89t-8.5 -76q0 -61 28.5 -96t104.5 -35q45 0 78 13t57.5 45t44 85t37.5 133l193 799h252l-197 -817q-27 -113 -60.5 -201t-89 -149.5t-140.5 -94.5t-212 -33q-180 0 -264 86t-84 240z" />
<glyph unicode="V" d="M279 1153v61.5t2 53.5h258q-4 -96 -6.5 -220t-2.5 -257q0 -143 3.5 -280.5t9.5 -254.5q55 106 119.5 241.5t127 273.5t118 268t93.5 229h263q-53 -123 -124 -274.5t-154 -318.5t-177 -340t-193 -335h-268q-16 119 -28.5 261t-21.5 293t-14 304.5t-5 294.5z" />
<glyph unicode="W" d="M80 0q41 309 103.5 623.5t133.5 644.5h232l-252 -996l281 547h178q4 -135 14 -274t21 -262l227 985h229q-43 -156 -88 -324t-92 -335t-94 -322.5t-92 -286.5h-217q-4 43 -11.5 113.5t-13.5 151.5t-12 166t-9 159l-305 -590h-233z" />
<glyph unicode="X" d="M4 0l528 692l-225 576h258l140 -387q68 88 140.5 187t137.5 200h266q-111 -158 -225.5 -303.5t-230.5 -288.5q33 -88 63.5 -184.5t54 -187.5t40 -170t22.5 -134h-250q-14 104 -40 228t-60 239l-330 -467h-289z" />
<glyph unicode="Y" d="M291 1268h248q12 -147 39.5 -296t58.5 -276q33 47 80 118t96 149.5t97 158.5t85 146h271q-63 -104 -126 -202.5t-128.5 -195t-138 -191.5t-154.5 -196l-117 -483h-252l115 481q-63 199 -104.5 388.5t-69.5 398.5z" />
<glyph unicode="Z" d="M57 0l41 166q63 86 136 180t162 201.5t199 234.5t245 279h-512l51 207h790l-49 -205q-119 -133 -219 -248t-188 -218t-168 -199.5t-156 -190.5h551l-51 -207h-832z" />
<glyph unicode="[" d="M182 -338l426 1770h570l-48 -197h-327l-332 -1376h328l-47 -197h-570z" />
<glyph unicode="\" d="M422 1432h240l165 -1770h-243z" />
<glyph unicode="]" d="M31 -338l47 197h328l331 1376h-327l47 197h569l-426 -1770h-569z" />
<glyph unicode="^" d="M158 651l514 617h213l215 -641l-230 -99l-149 463l-373 -454z" />
<glyph unicode="_" d="M-70 -338l54 219h915l-53 -219h-916z" />
<glyph unicode="`" d="M487 1223l125 192l324 -241l-92 -138z" />
<glyph unicode="a" d="M131 352q0 139 47 256t129 200t191.5 129t232.5 46q84 0 170 -16.5t174 -51.5l-127 -522q-8 -37 -12 -72.5t-4 -72.5q0 -59 11 -115.5t30 -112.5l-221 -36q-4 8 -10.5 20t-12.5 26.5t-10 26t-6 17.5q-41 -31 -110.5 -64t-180.5 -33q-135 2 -213 97.5t-78 277.5zM381 373 q0 -53 9 -88t26.5 -55.5t42 -28.5t55.5 -8q57 0 96 25.5t68 60.5q4 29 8 55t12 61l88 365q-23 6 -47 8t-47 2q-72 0 -129 -34t-98 -89t-62.5 -126.5t-21.5 -147.5z" />
<glyph unicode="b" d="M82 35l324 1343l262 43l-117 -487q43 23 91 35t93 12q135 0 214 -91t79 -286q0 -139 -43 -256t-121 -199.5t-186.5 -129t-239.5 -46.5q-82 0 -180 16.5t-176 45.5zM373 199q23 -4 47 -6.5t47 -2.5q76 0 133 33t97 87.5t60.5 125t20.5 148.5q0 106 -35.5 146t-95.5 40 q-33 0 -75 -12.5t-70 -34.5z" />
<glyph unicode="c" d="M158 373q0 133 47 245.5t132 193.5t201.5 127t258.5 46q55 0 97 -4t77 -11t62.5 -16.5t53.5 -21.5l-90 -201q-33 14 -84 25.5t-116 11.5q-84 0 -154 -25.5t-122 -75t-80.5 -121t-28.5 -163.5q0 -41 10 -75t37.5 -58.5t76 -38.5t121.5 -14q80 0 148.5 15t103.5 32l25 -201 q-25 -12 -53.5 -24.5t-67.5 -21.5t-91 -14.5t-124 -5.5q-125 0 -209 32t-135 85t-73.5 126t-22.5 153z" />
<glyph unicode="d" d="M131 352q0 139 47 255t128 198t190.5 127t232.5 45q55 0 107 -14l98 415l262 43l-248 -1028q-8 -37 -12 -72.5t-4 -72.5q0 -59 11 -115.5t30 -112.5l-221 -36q-4 8 -10.5 20t-12.5 26.5t-10 26t-6 17.5q-41 -31 -111 -64t-180 -33q-135 2 -213 97.5t-78 277.5zM381 373 q0 -53 9 -88t26.5 -55.5t42 -28.5t55.5 -8q57 0 96 25.5t68 60.5q4 29 8 55t12 61l88 365q-23 6 -47 8t-47 2q-72 0 -129 -34t-98 -89t-62.5 -126.5t-21.5 -147.5z" />
<glyph unicode="e" d="M154 375q0 119 39.5 230.5t116.5 195.5t186.5 135t251.5 51q141 0 231 -69.5t90 -194.5q0 -104 -51 -177t-141.5 -118t-212.5 -65.5t-263 -20.5q0 -37 12.5 -66.5t40 -50t73.5 -32t116 -11.5q82 0 155.5 17.5t108.5 33.5l17 -190q-49 -25 -137.5 -46.5t-192.5 -21.5 q-117 0 -201 30t-137 83t-77.5 126t-24.5 161zM403 516q129 0 212 16.5t130.5 42t65.5 56.5t18 57q0 47 -34 72.5t-95 25.5q-94 0 -179 -64.5t-118 -205.5z" />
<glyph unicode="f" d="M-72 -303l70 213q27 -10 58.5 -17.5t72.5 -7.5q45 0 78 14.5t54.5 38t34.5 55.5t19 68l140 693h-207l51 209h199l10 55q25 117 69 193.5t104 122.5t134 65.5t156 19.5q66 0 126 -10t113 -35l-88 -205q-41 18 -76.5 26.5t-78.5 8.5q-37 0 -69 -5t-58.5 -24.5t-47 -56.5 t-32.5 -100l-10 -55h348l-51 -209h-338l-140 -701q-39 -193 -147.5 -295t-288.5 -102q-61 0 -112.5 11t-92.5 30z" />
<glyph unicode="g" d="M2 -264l88 198q53 -23 119.5 -43t155.5 -20q123 0 185 52t83 138l12 54q-45 -23 -92 -36t-90 -13q-164 0 -235.5 92t-71.5 243q0 139 50 248t134 182.5t191.5 112.5t222.5 39q86 0 173 -13.5t165 -45.5l-195 -811q-29 -119 -72 -205t-109.5 -142.5t-158.5 -83t-217 -26.5 q-109 0 -185.5 19.5t-152.5 60.5zM401 420q0 -61 27 -106.5t109 -45.5q29 0 72.5 11.5t84.5 37.5l109 449q-49 12 -94 12q-70 0 -126.5 -29.5t-96.5 -78.5t-62.5 -115t-22.5 -135z" />
<glyph unicode="h" d="M90 0l330 1378l262 43l-111 -463q35 10 72 17.5t72 7.5q152 0 227.5 -72.5t75.5 -205.5q0 -35 -5 -76t-16 -86l-131 -543h-252l123 510q6 33 14.5 67.5t8.5 69.5q0 47 -24.5 83t-94.5 36q-27 0 -58.5 -5t-60.5 -18l-180 -743h-252z" />
<glyph unicode="i" d="M227 754l52 209h518l-140 -588q-12 -43 -12 -76q0 -102 105 -102q35 0 82 7t104 27l4 -204q-76 -29 -142.5 -39.5t-123.5 -10.5q-145 0 -215 71t-70 200q0 68 23 158l82 348h-267zM535 1223q0 39 14 72.5t37.5 56t54.5 36t64 13.5q59 0 103 -35t44 -113 q0 -37 -15.5 -69.5t-40 -55t-55 -36t-61.5 -13.5q-66 0 -105.5 35t-39.5 109z" />
<glyph unicode="j" d="M-12 -256l98 203q45 -29 96 -51.5t117 -22.5q78 0 127 38t74 140l168 703h-389l51 209h641l-219 -912q-29 -117 -69 -194.5t-93 -122.5t-121 -63.5t-152 -18.5q-104 0 -190 25.5t-139 66.5zM664 1223q0 39 14 72.5t37.5 56t54.5 36t64 13.5q61 0 105 -35t44 -113 q0 -37 -15.5 -69.5t-40 -55t-55 -36t-61.5 -13.5q-66 0 -106.5 35t-40.5 109z" />
<glyph unicode="k" d="M111 0l331 1378l263 43l-199 -827q37 31 86 76t100 95t99.5 102.5t82.5 95.5h287q-98 -119 -221 -235t-233 -208q37 -45 74.5 -109.5t74.5 -136t67.5 -143.5t51.5 -131h-273q-16 51 -42.5 116.5t-57.5 131t-63.5 123t-63.5 94.5l-110 -465h-254z" />
<glyph unicode="l" d="M297 1200l49 209h518l-241 -1024q-4 -20 -9.5 -44t-5.5 -42q0 -41 22.5 -71.5t92.5 -30.5q29 0 58.5 5t56 13t47 14.5t30.5 10.5l17 -199q-8 -4 -31.5 -15.5t-62.5 -21.5t-91.5 -18.5t-115.5 -8.5q-139 0 -209 72t-70 201q0 35 5 72.5t16 78.5l190 799h-266z" />
<glyph unicode="m" d="M43 0l221 920q76 27 138.5 40t121.5 13q53 0 99.5 -16.5t74.5 -55.5q47 37 101.5 54.5t97.5 17.5q82 0 134 -50.5t52 -156.5q0 -25 -3 -52.5t-11 -56.5l-156 -657h-204l159 676q4 14 6.5 29.5t2.5 23.5q0 61 -56 62q-20 0 -38.5 -10.5t-34.5 -24.5q0 -47 -13 -99 l-69 -290h-199l72 305q4 12 8 28.5t4 32.5q0 20 -10.5 37.5t-40.5 17.5q-35 0 -66 -10l-186 -778h-205z" />
<glyph unicode="n" d="M90 0l221 922q63 20 166 40.5t219 20.5q172 0 247 -73.5t75 -204.5q0 -35 -5 -76t-16 -86l-133 -543h-252l125 510q6 33 14.5 67.5t8.5 69.5q0 47 -25.5 83t-93.5 36q-29 0 -59.5 -5t-59.5 -18l-180 -743h-252z" />
<glyph unicode="o" d="M133 334q0 123 37 239.5t108.5 208.5t178 148.5t245.5 56.5q150 0 241 -91t91 -271q0 -121 -34.5 -238t-105.5 -209t-176.5 -148.5t-244.5 -56.5q-172 0 -256 98.5t-84 262.5zM385 399q0 -96 27.5 -151t111.5 -55q61 0 108.5 36.5t81.5 92t51 120t17 121.5 q0 96 -27.5 151.5t-113.5 55.5q-59 0 -107.5 -37t-81 -92t-50 -119.5t-17.5 -122.5z" />
<glyph unicode="p" d="M-4 -338l303 1256q43 18 92 30.5t99.5 20.5t96.5 11t83 3q190 0 278 -97.5t88 -250.5q0 -127 -36.5 -246t-111.5 -210t-189.5 -145t-268.5 -54q-41 0 -63.5 2t-38.5 6l-80 -326h-252zM379 201q10 -4 22.5 -4h26.5q84 0 151.5 33.5t113.5 91t70.5 134t24.5 160.5 q0 31 -6 60t-22.5 51.5t-47 35.5t-79.5 13q-41 0 -68.5 -4t-50.5 -10z" />
<glyph unicode="q" d="M147 352q0 141 47.5 257t129.5 199t191.5 129t232.5 46q84 0 170 -16.5t174 -51.5l-301 -1253h-252l86 365q-90 -45 -187 -45q-133 0 -212 94t-79 276zM397 373q0 -53 9.5 -88t27 -55.5t42 -28.5t54.5 -8q33 0 75 13t71 36l127 518q-23 6 -47.5 8t-46.5 2 q-72 0 -129.5 -34t-98.5 -89t-62.5 -126.5t-21.5 -147.5z" />
<glyph unicode="r" d="M141 0l215 899q96 39 208 60.5t210 21.5q115 0 187.5 -10t134.5 -27l-97 -231q-39 14 -92 22t-131 8q-53 0 -109.5 -7t-103.5 -23l-170 -713h-252z" />
<glyph unicode="s" d="M100 63l95 199q41 -23 112.5 -49.5t171.5 -26.5q109 0 150 29t41 68q0 18 -7.5 32.5t-24.5 27.5t-48 26.5t-78 31.5q-57 20 -100 43t-72 52.5t-43 68.5t-14 92q0 150 105.5 240t316.5 90q104 0 191 -18.5t138 -42.5l-92 -199q-47 23 -107.5 37t-152.5 14q-20 0 -46 -3 t-48.5 -13t-37.5 -27.5t-15 -44.5q0 -18 5 -31.5t21.5 -27t47 -27.5t81.5 -33q61 -25 105.5 -49t74 -55t43 -72t13.5 -98q0 -59 -24.5 -116.5t-77 -103.5t-136.5 -75t-201 -29q-84 0 -147.5 10.5t-110.5 25t-78.5 29.5t-50.5 25z" />
<glyph unicode="t" d="M225 754l51 209h191l57 241l264 41l-69 -282h366l-51 -209h-364l-90 -375q-10 -51 -11 -80q0 -61 42 -81.5t96 -20.5q55 0 113.5 13t113.5 36l-2 -211q-63 -29 -140 -43.5t-153 -14.5q-164 0 -245 71t-81 206q0 33 4.5 66.5t14.5 72.5l86 361h-193z" />
<glyph unicode="u" d="M156 268q0 94 28 219l115 476h252l-109 -459q-16 -61 -24 -111.5t-8 -89.5q0 -106 102 -106q57 0 91 23.5t65 58.5q4 29 7 55t13 61l135 568h252l-137 -570q-8 -37 -13 -72.5t-5 -72.5q0 -59 12 -115.5t31 -112.5l-222 -36l-10 20t-12 26.5t-10 26t-7 17.5 q-41 -31 -106 -64t-143 -33q-166 0 -231.5 78t-65.5 213z" />
<glyph unicode="v" d="M217 963h262q2 -74 6 -162t11.5 -177t16.5 -177.5t19 -161.5q43 61 92.5 146t95.5 178t85 185.5t61 168.5h271q-49 -131 -117 -269.5t-142.5 -266.5t-151.5 -238.5t-142 -188.5h-228q-47 186 -85 429t-54 534z" />
<glyph unicode="w" d="M131 0q0 90 4 199.5t13.5 233.5t23.5 257t37 273h219q-35 -178 -65.5 -349.5t-53.5 -361.5q47 82 84 151.5t68 131t57.5 118t52.5 115.5h166q4 -115 9.5 -233.5t13.5 -282.5q33 98 60.5 186t51 174t46 172t45.5 179h221q-90 -281 -179.5 -529t-187.5 -434h-188 q-10 109 -17.5 220.5t-15.5 254.5q-37 -76 -67.5 -136t-62.5 -113.5t-65.5 -108t-74.5 -117.5h-195z" />
<glyph unicode="x" d="M20 0l437 489l-234 474h264l142 -308q61 74 120.5 153t110.5 155h266q-78 -111 -170 -229t-213 -247q72 -135 124.5 -249.5t93.5 -237.5h-259q-33 86 -68.5 167t-66.5 144l-270 -311h-277z" />
<glyph unicode="y" d="M-88 -301l80 201q33 -14 61.5 -21.5t73.5 -7.5q150 0 248 147q-49 197 -89 427.5t-55 517.5h263q2 -74 7 -162t13 -178.5t19.5 -178.5t25.5 -159q94 143 166 310t131 368h268q-53 -141 -104 -262t-105.5 -230t-114 -208t-126.5 -195q-51 -74 -109.5 -147t-127 -132 t-150.5 -96t-178 -37q-127 0 -197 43z" />
<glyph unicode="z" d="M100 0l43 166q55 66 126 142.5t148 155.5t152.5 153.5t141.5 136.5h-416l51 209h739l-43 -185q-41 -35 -107.5 -97.5t-146 -139t-165.5 -162.5t-164 -170h461l-52 -209h-768z" />
<glyph unicode="{" d="M203 449l47 196h100q63 0 108.5 44t63.5 128l72 303q18 76 44 134.5t68 97.5t105 59.5t156 20.5h219l-49 -197h-154q-43 0 -70.5 -9t-46 -28.5t-31 -51.5t-22.5 -75l-61 -260q-29 -115 -83 -179.5t-163 -84.5q70 -31 94.5 -84t24.5 -115q0 -29 -3.5 -58.5t-11.5 -58.5 l-45 -202l-9 -45t-5 -45q0 -35 20.5 -57.5t73.5 -22.5h184l-47 -197h-190q-59 0 -109.5 12.5t-87.5 40t-58.5 73.5t-21.5 112q0 53 19 127l51 223q6 25 11 49.5t5 48.5q0 41 -21.5 71t-80.5 30h-96z" />
<glyph unicode="|" d="M256 -338l426 1770h252l-424 -1770h-254z" />
<glyph unicode="}" d="M8 -338l47 197h156q43 0 69.5 9t45 28.5t31 51.5t22.5 75l61 260q29 115 83 179.5t163 84.5q-70 31 -94.5 84t-24.5 114q0 29 4 59t11 58l45 203l9 45t5 45q0 35 -19.5 57.5t-74.5 22.5h-185l48 197h190q59 0 110.5 -12.5t88.5 -40t57.5 -73.5t20.5 -112 q0 -29 -4.5 -59.5t-12.5 -65.5l-53 -225q-6 -25 -10 -49.5t-4 -49.5q0 -41 20.5 -70.5t79.5 -29.5h96l-47 -196h-98q-63 0 -109.5 -44.5t-64.5 -128.5l-72 -303q-18 -76 -44 -134t-68 -97t-105.5 -59.5t-155.5 -20.5h-217z" />
<glyph unicode="~" d="M102 410q20 61 52 119.5t75 102.5t97.5 70.5t119.5 26.5q66 0 112 -25.5t87 -54.5q29 -20 62.5 -39.5t66.5 -19.5q20 0 36.5 4t32 18.5t32 41t38.5 71.5l172 -53q-25 -66 -57.5 -124.5t-74.5 -101.5t-95 -68.5t-119 -25.5t-111.5 27t-84.5 55q-31 20 -64 39t-67 19 q-20 0 -37 -4.5t-32 -17.5t-32.5 -40t-38.5 -72z" />
<glyph unicode="&#xa0;" />
<glyph unicode="&#xa2;" d="M180 442q0 115 36 211.5t101.5 169t156.5 119.5t202 62l63 264h252l-63 -269q53 -8 95 -22t77 -29l-92 -200q-31 14 -86.5 29.5t-120.5 15.5q-78 0 -145.5 -20.5t-117 -60.5t-77 -100.5t-27.5 -140.5q0 -92 58.5 -144.5t199.5 -52.5q80 0 139.5 17.5t94.5 34.5l24 -201 q-41 -23 -104.5 -41t-145.5 -25l-59 -258h-254l66 275q-76 16 -128.5 52t-84 85t-46 107.5t-14.5 121.5z" />
<glyph unicode="&#xa3;" d="M156 0q70 154 109.5 277.5t68.5 228.5h-162l49 211h164l47 188q27 106 76 181t113.5 121t140.5 66.5t153 20.5q78 0 150 -15t125 -50l-103 -191q-41 23 -85 33t-87 10t-79.5 -9t-68.5 -34.5t-56.5 -70.5t-42.5 -119l-33 -133h323l-49 -209h-323q-16 -66 -44 -145.5 t-55 -149.5h504l-49 -211h-786z" />
<glyph unicode="&#xa5;" d="M127 207l37 160h268l33 145h-266l39 160h217q-59 158 -110.5 315.5t-80.5 280.5h262q12 -61 24.5 -116.5t28 -114t34.5 -123t46 -144.5q182 219 340 498h273q-51 -82 -100.5 -155t-101.5 -143.5t-108.5 -143t-123.5 -154.5h200l-39 -160h-268l-33 -145h269l-39 -160h-271 l-49 -207h-266l51 207h-266z" />
<glyph unicode="&#xa8;" d="M426 1223q0 35 13.5 63.5t34 49t47 31.5t52.5 11q51 0 88 -33.5t37 -89.5q0 -35 -14 -62.5t-35.5 -48t-48 -31.5t-51.5 -11q-53 0 -88 32.5t-35 88.5zM831 1223q0 70 47.5 112.5t102.5 42.5q51 0 87 -33.5t36 -89.5q0 -35 -14.5 -62.5t-36 -48t-48 -31.5t-51.5 -11 q-53 0 -88 32.5t-35 88.5z" />
<glyph unicode="&#xa9;" d="M129 473q0 125 39 219t102.5 156.5t146.5 93.5t173 31t173 -31t147.5 -93.5t103.5 -156.5t39 -219t-39 -218t-103.5 -155.5t-147.5 -94.5t-173 -32t-173 32t-146.5 94.5t-102.5 155.5t-39 218zM264 475q0 -90 27.5 -159.5t74 -116.5t105 -71t119.5 -24q59 0 117.5 24 t104.5 71t73.5 116.5t27.5 159.5q0 88 -27.5 156.5t-73.5 116t-103.5 72t-118.5 24.5t-119.5 -24.5t-105 -72t-74 -116t-27.5 -156.5zM367 469q0 49 14 96t43 84t74 59.5t106 22.5q31 0 67 -5t72 -21l-43 -111q-23 10 -44 13t-42 3q-63 0 -90.5 -41t-27.5 -92 q0 -66 32.5 -103.5t96.5 -37.5q16 0 40.5 4t45.5 14l34 -108q-35 -16 -72.5 -24.5t-70.5 -8.5q-59 0 -103 21.5t-74 57.5t-44 82t-14 95z" />
<glyph unicode="&#xab;" d="M182 530l357 418l127 -92l-260 -342l118 -346l-141 -74zM592 530l356 418l127 -92l-260 -342l119 -346l-141 -74z" />
<glyph unicode="&#xad;" d="M285 401l59 248h561l-61 -248h-559z" />
<glyph unicode="&#xae;" d="M129 473q0 125 39 219t102.5 156.5t146.5 93.5t173 31t173 -31t147.5 -93.5t103.5 -156.5t39 -219t-39 -218t-103.5 -155.5t-147.5 -94.5t-173 -32t-173 32t-146.5 94.5t-102.5 155.5t-39 218zM264 475q0 -90 27.5 -159.5t74 -116.5t105 -71t119.5 -24q59 0 117.5 24 t104.5 71t73.5 116.5t27.5 159.5q0 88 -27.5 156.5t-73.5 116t-103.5 72t-118.5 24.5t-119.5 -24.5t-105 -72t-74 -116t-27.5 -156.5zM418 225v488q27 8 62.5 13t74.5 5q117 0 172 -45t55 -131q0 -100 -80 -145q23 -35 50.5 -83t54.5 -102h-117q-27 49 -48 87t-40 71h-76 v-158h-108zM526 485h39q55 0 82 14.5t27 61.5q0 41 -33 54.5t-68 13.5q-14 0 -25 -1t-22 -3v-140z" />
<glyph unicode="&#xb4;" d="M565 1174l324 241l125 -192l-357 -187z" />
<glyph unicode="&#xb8;" d="M258 -307l53 119q23 -12 52.5 -19.5t58.5 -7.5q47 0 62.5 18.5t15.5 32.5q0 23 -11.5 38t-42.5 26l-36 12q25 39 45 66.5t43 58.5h168q-16 -20 -31 -42.5t-31 -45.5q45 -23 63.5 -53.5t18.5 -67.5q0 -84 -70.5 -130t-181.5 -46q-98 0 -176 41z" />
<glyph unicode="&#xbb;" d="M131 186l260 342l-119 346l144 74l198 -436l-354 -418zM541 186l260 342l-119 346l143 74l199 -436l-354 -418z" />
<glyph unicode="&#x2c6;" d="M473 1157l328 258l225 -276l-111 -95l-151 142l-207 -142z" />
<glyph unicode="&#x2da;" d="M553 1278q0 51 17.5 91t47 66.5t68.5 40t80 13.5q88 0 152.5 -53.5t64.5 -157.5q0 -102 -64.5 -155.5t-152.5 -53.5q-41 0 -80 13.5t-68.5 40t-47 65.5t-17.5 90zM684 1278q0 -41 25.5 -63.5t56.5 -22.5q35 0 59.5 22.5t24.5 63.5q0 43 -24.5 64.5t-59.5 21.5 q-31 0 -56.5 -21.5t-25.5 -64.5z" />
<glyph unicode="&#x2dc;" d="M412 1174q43 100 100 148t143 48q33 0 60.5 -10t51.5 -21.5t46.5 -21.5t44.5 -10q27 0 47.5 14t50.5 59l123 -73q-43 -100 -100 -148.5t-143 -48.5q-35 0 -63 10t-51.5 21.5t-45 22t-43.5 10.5q-27 0 -47.5 -14.5t-50.5 -59.5z" />
<glyph unicode="&#x400;" d="M109 0l303 1268h751l-49 -209h-500l-69 -285h434l-49 -209h-434l-86 -356h544l-49 -209h-796zM557 1508l125 192l324 -241l-92 -138z" />
<glyph unicode="&#x401;" d="M109 0l303 1268h751l-49 -209h-500l-69 -285h434l-49 -209h-434l-86 -356h544l-49 -209h-796zM498 1508q0 35 13.5 63.5t34 49t47 31.5t52.5 11q51 0 88 -33.5t37 -89.5q0 -35 -14 -62.5t-35.5 -48t-48 -31.5t-51.5 -11q-53 0 -88 32.5t-35 88.5zM903 1508 q0 70 47.5 112.5t102.5 42.5q51 0 87 -33.5t36 -89.5q0 -35 -14.5 -62.5t-36 -48t-48 -31.5t-51.5 -11q-53 0 -88 32.5t-35 88.5z" />
<glyph unicode="&#x402;" d="M145 0l256 1059h-168l50 209h766l-50 -209h-352l-69 -283q35 10 68.5 15.5t80.5 5.5q82 0 142.5 -24.5t100.5 -67.5t59.5 -101.5t19.5 -126.5q0 -94 -26 -182t-79 -156.5t-133 -109.5t-190 -41q-33 0 -68 2t-53 6l53 203q12 -2 21.5 -2h25.5q51 0 89 22.5t62.5 59t37 83 t12.5 93.5q-1 133 -144 133q-39 0 -69.5 -7.5t-59.5 -11.5l-135 -569h-248z" />
<glyph unicode="&#x403;" d="M29 0l49 209h184l254 1059h713l-49 -209h-461l-205 -850h274l-49 -209h-710zM729 1459l324 241l125 -192l-357 -187z" />
<glyph unicode="&#x404;" d="M180 420q0 154 42 310.5t126 282.5t212 204.5t300 78.5q66 0 117 -12t90 -27.5t63.5 -33t34.5 -25.5l-94 -194q-41 31 -96 52t-141 21q-66 0 -119 -25.5t-97.5 -68.5t-77 -101.5t-55.5 -123.5h420l-53 -219h-416q0 -25 -1 -48.5t-1 -46.5q0 -55 10.5 -100t35 -79 t66.5 -52t103 -18q94 0 155.5 22.5t104.5 46.5l27 -203q-53 -33 -142 -60.5t-208 -27.5q-104 0 -181 32t-127.5 90.5t-74 141t-23.5 183.5z" />
<glyph unicode="&#x405;" d="M63 84l109 192q20 -12 52 -28.5t72 -30.5t87 -23.5t100 -9.5q47 0 90 9.5t75 31t51.5 54t19.5 81.5q0 37 -15.5 67t-42 54.5t-62.5 45t-77 40.5q-51 27 -95 53.5t-76 63.5t-50 88t-18 125q0 180 121.5 289.5t347.5 109.5q74 0 132 -10t103 -24.5t77 -31t52 -28.5 l-106 -194q-47 33 -119 55t-172 22q-78 0 -132.5 -34.5t-54.5 -120.5q0 -70 46.5 -106t111.5 -64q61 -29 112.5 -59.5t88.5 -71.5t58.5 -96.5t21.5 -131.5q0 -209 -134.5 -318.5t-379.5 -109.5q-82 0 -146.5 12.5t-111.5 29t-81 36t-55 33.5z" />
<glyph unicode="&#x406;" d="M72 0l49 209h278l205 850h-278l49 209h805l-50 -209h-274l-205 -850h275l-49 -209h-805z" />
<glyph unicode="&#x407;" d="M72 0l49 209h278l205 850h-278l49 209h805l-50 -209h-274l-205 -850h275l-49 -209h-805zM500 1508q0 35 13.5 63.5t34 49t47 31.5t52.5 11q51 0 88 -33.5t37 -89.5q0 -35 -14 -62.5t-35.5 -48t-48 -31.5t-51.5 -11q-53 0 -88 32.5t-35 88.5zM905 1508q0 70 47.5 112.5 t102.5 42.5q51 0 87 -33.5t36 -89.5q0 -35 -14.5 -62.5t-36 -48t-48 -31.5t-51.5 -11q-53 0 -88 32.5t-35 88.5z" />
<glyph unicode="&#x408;" d="M76 113l129 182q41 -37 97 -69.5t128 -32.5q98 0 162.5 52t99.5 193l148 621h-410l49 209h662l-201 -844q-23 -96 -57.5 -179t-92 -143.5t-144.5 -94.5t-212 -34q-66 0 -122 13.5t-100 34t-79 45t-57 47.5z" />
<glyph unicode="&#x409;" d="M-6 -27l6 195q16 0 32.5 8t33.5 21q33 31 65.5 98t61 150t53 170t41.5 157l121 496h491l-106 -453q10 2 20 2h21q55 0 100 -22.5t76.5 -60.5t48 -88t16.5 -107q0 -98 -25.5 -196.5t-77.5 -177.5t-133 -128t-192 -49q-63 0 -116.5 6t-116.5 24l260 1084h-129l-88 -359 q-12 -47 -27.5 -113.5t-37 -139t-50.5 -148.5t-63.5 -141.5t-76.5 -117.5t-93 -79q-25 -12 -55.5 -20.5t-59.5 -10.5zM633 156q20 -4 35 -4q55 0 96 35.5t68.5 90t41 117t13.5 115.5q0 80 -31 111.5t-80 31.5q-16 0 -24 -2z" />
<glyph unicode="&#x40a;" d="M27 0l307 1268h188l-112 -473h174l114 473h191l-111 -469q10 2 21.5 2h21.5q55 0 101.5 -21.5t78 -58.5t50 -86t18.5 -107q0 -98 -25.5 -195t-79 -174t-134 -124t-191.5 -47q-63 0 -119.5 6t-120.5 24l144 605h-174l-152 -623h-190zM623 156q20 -4 34 -4q55 0 97.5 34.5 t70 87t42 114t14.5 114.5q0 78 -34 106.5t-85 28.5h-11.5t-13.5 -2z" />
<glyph unicode="&#x40b;" d="M162 0l256 1059h-168l49 209h766l-49 -209h-352l-68 -277q29 6 61.5 10.5t79.5 4.5q78 0 131.5 -21.5t87 -59.5t48 -89.5t14.5 -110.5q0 -39 -5 -85t-16 -87l-82 -344h-247l75 330q10 35 17.5 73.5t7.5 73.5q0 47 -21.5 79t-78.5 32q-37 0 -65 -3t-56 -10l-137 -575h-248 z" />
<glyph unicode="&#x40c;" d="M63 0l304 1268h254l-127 -527q63 57 127.5 126t124 139.5t111.5 138t89 123.5h289q-47 -63 -106.5 -139t-129 -157t-147.5 -161t-160 -152q49 -61 94 -138t83 -164t68 -178t48 -179h-264q-14 72 -42 155t-63.5 162.5t-76.5 150.5t-82 120l-142 -588h-252zM610 1459 l324 241l125 -192l-357 -187z" />
<glyph unicode="&#x40d;" d="M53 0l303 1268h226l-203 -842q53 86 124.5 193.5t151.5 220t162 224.5t158 204h223l-303 -1268h-225l211 877q-170 -233 -310.5 -444.5t-277.5 -432.5h-240zM532 1508l125 192l324 -241l-92 -138z" />
<glyph unicode="&#x40e;" d="M16 20l88 218q70 -37 160 -37q66 0 121 45t123 155q-84 242 -143.5 467.5t-90.5 399.5h267q12 -74 27.5 -156t31.5 -163t34.5 -155.5t37.5 -134.5q49 88 97 177.5t89 170t74 148.5t51 113h289q-76 -143 -141.5 -262t-126 -223.5t-119 -201t-119.5 -192.5 q-76 -121 -142.5 -200.5t-130 -127t-127 -68t-130.5 -20.5q-61 0 -113.5 12.5t-106.5 34.5zM489 1641l193 47q2 -72 32.5 -99.5t75.5 -27.5q49 0 86 26.5t70 98.5l172 -60q-43 -129 -134 -188t-224 -59q-113 0 -189.5 67.5t-81.5 194.5z" />
<glyph unicode="&#x40f;" d="M59 0l306 1268h251l-254 -1059h326l254 1059h252l-305 -1268h-299l-82 -338h-234l82 338h-297z" />
<glyph unicode="&#x410;" d="M-12 0q174 381 335.5 699.5t315.5 568.5h268q29 -242 46.5 -511.5t21.5 -574.5v-182h-254l8 295h-360q-31 -70 -64 -143.5t-61 -151.5h-256zM463 498h270q2 104 1 182t-3 138.5t-5 110.5t-5 99q-27 -51 -52.5 -100t-55 -109.5t-66.5 -138.5t-84 -182z" />
<glyph unicode="&#x411;" d="M68 23l299 1245h718l-49 -209h-469l-59 -242h104q205 0 303.5 -93t98.5 -247q0 -127 -47 -220t-130 -153.5t-197 -90t-245 -29.5q-74 0 -156.5 8t-170.5 31zM362 207q37 -6 76 -6q154 0 238 64.5t84 185.5q0 70 -44 110.5t-163 40.5h-98z" />
<glyph unicode="&#x412;" d="M80 27l293 1216q41 10 87 17.5t90 12.5t85 7t72 2q88 0 159.5 -16.5t122.5 -53t80 -93t29 -136.5q0 -92 -50.5 -177t-181.5 -136q86 -41 125 -101.5t39 -150.5q0 -98 -39 -178t-115.5 -136.5t-190.5 -88t-261 -31.5q-31 0 -73 2t-89 7t-95 13t-87 21zM369 207 q23 -4 58.5 -6t86.5 -2q37 0 84 10t88 34.5t69.5 67.5t28.5 109q0 82 -55 109.5t-143 27.5h-133zM504 760h78q51 0 100 9t88 31.5t63.5 59.5t24.5 90q0 66 -45 92.5t-125 26.5q-33 0 -62.5 -1t-52.5 -5z" />
<glyph unicode="&#x413;" d="M29 0l49 209h184l254 1059h713l-49 -209h-461l-205 -850h274l-49 -209h-710z" />
<glyph unicode="&#x414;" d="M-76 -338l131 547h68q68 80 122 185.5t98 218t77 226t55 212.5l51 217h629l-254 -1059h82l-131 -547h-229l82 338h-467l-82 -338h-232zM358 209h299l205 858h-172q-12 -61 -43 -175t-75 -242t-98 -247.5t-116 -193.5z" />
<glyph unicode="&#x415;" d="M109 0l303 1268h751l-49 -209h-500l-69 -285h434l-49 -209h-434l-86 -356h544l-49 -209h-796z" />
<glyph unicode="&#x416;" d="M-23 0q43 98 94.5 194.5t106.5 185.5t113.5 167t114.5 141q-43 154 -70 298t-41 282h205q4 -156 20.5 -282t40.5 -228l123 510h197l-125 -518q88 117 165.5 239.5t151.5 278.5h211q-84 -150 -186.5 -308.5t-223.5 -306.5q25 -53 45.5 -125.5t35 -158.5t23.5 -180.5 t13 -188.5h-211q0 86 -4 172t-11 166t-17.5 149.5t-24.5 122.5l-148 -610h-196l149 618q-41 -57 -87 -128.5t-92 -151.5t-88 -166t-75 -172h-209z" />
<glyph unicode="&#x417;" d="M18 78l117 201q72 -47 145.5 -66.5t161.5 -19.5q78 0 135.5 17t94.5 45t54 64.5t17 77.5q0 72 -55 114t-172 42h-188l47 207h153q53 0 106.5 10t95.5 34.5t68.5 63.5t26.5 97q0 55 -45 83.5t-121 28.5q-66 0 -140.5 -17.5t-151.5 -58.5l-45 209q86 41 181 62.5t220 21.5 q102 0 170 -24.5t108.5 -64.5t58 -91t17.5 -104q0 -111 -59.5 -200t-204.5 -136q57 -25 92 -57.5t55.5 -68.5t27.5 -72t7 -66q0 -74 -26.5 -151t-92 -140.5t-177 -104.5t-281.5 -41q-127 0 -219.5 27t-180.5 78z" />
<glyph unicode="&#x418;" d="M53 0l303 1268h226l-203 -842q53 86 124.5 193.5t151.5 220t162 224.5t158 204h223l-303 -1268h-225l211 877q-170 -233 -310.5 -444.5t-277.5 -432.5h-240z" />
<glyph unicode="&#x419;" d="M53 0l303 1268h226l-203 -842q53 86 124.5 193.5t151.5 220t162 224.5t158 204h223l-303 -1268h-225l211 877q-170 -233 -310.5 -444.5t-277.5 -432.5h-240zM538 1641l193 47q2 -72 32.5 -99.5t75.5 -27.5q49 0 86 26.5t70 98.5l172 -60q-43 -129 -134 -188t-224 -59 q-113 0 -189.5 67.5t-81.5 194.5z" />
<glyph unicode="&#x41a;" d="M63 0l304 1268h254l-127 -527q63 57 127.5 126t124 139.5t111.5 138t89 123.5h289q-47 -63 -106.5 -139t-129 -157t-147.5 -161t-160 -152q49 -61 94 -138t83 -164t68 -178t48 -179h-264q-14 72 -42 155t-63.5 162.5t-76.5 150.5t-82 120l-142 -588h-252z" />
<glyph unicode="&#x41b;" d="M16 190q106 20 180 97.5t127.5 194t92.5 263t76 306.5l51 217h661l-303 -1268h-246l254 1059h-194l-66 -258t-71.5 -247t-87 -220.5t-113 -179t-148.5 -123.5t-192 -56z" />
<glyph unicode="&#x41c;" d="M12 0q43 156 89 324t93.5 334.5t93.5 322.5t91 287h217q4 -43 11 -114t13.5 -151.5t11.5 -166.5t9 -160l307 592h232q-41 -309 -103.5 -623.5t-134.5 -644.5h-231l254 995l-283 -546h-178q-4 135 -13.5 274t-19.5 262l-227 -985h-232z" />
<glyph unicode="&#x41d;" d="M53 0l305 1268h252l-121 -500h338l121 500h252l-305 -1268h-254l137 559h-338l-135 -559h-252z" />
<glyph unicode="&#x41e;" d="M137 367q0 80 12.5 180t42 203.5t75.5 202t115 175t160 122.5t210 46q166 0 260 -107.5t94 -285.5q0 -80 -12.5 -180t-41 -203.5t-75.5 -202t-114.5 -175t-159 -123t-209.5 -46.5q-168 0 -262.5 107.5t-94.5 286.5zM389 385q0 -80 27.5 -136t105.5 -56q84 0 146.5 71.5 t103.5 177t61.5 225t20.5 218.5q0 80 -27.5 136t-103.5 56q-84 0 -147.5 -71.5t-104.5 -177t-61.5 -226.5t-20.5 -217z" />
<glyph unicode="&#x41f;" d="M55 0l305 1268h838l-305 -1268h-252l254 1059h-334l-254 -1059h-252z" />
<glyph unicode="&#x420;" d="M78 0l301 1251q96 16 181 23.5t151 7.5q113 0 193.5 -25.5t133 -72.5t76 -111.5t23.5 -140.5q0 -129 -48.5 -224.5t-134.5 -157t-204.5 -91t-262.5 -29.5h-53l-104 -430h-252zM485 647h62q166 0 251 65.5t85 182.5q0 78 -43 123t-162 45q-29 0 -47.5 -1t-46.5 -5z" />
<glyph unicode="&#x421;" d="M180 420q0 154 42 310.5t126 282.5t212 204.5t300 78.5q66 0 117 -12t90 -27.5t63.5 -33t34.5 -25.5l-94 -194q-41 31 -96 52t-141 21q-100 0 -175 -59.5t-125.5 -151.5t-75 -203.5t-24.5 -218.5q0 -55 11.5 -100t37 -79t67.5 -52t103 -18q94 0 157.5 22.5t104.5 46.5 l29 -203q-53 -33 -145 -60.5t-209 -27.5q-104 0 -182 32t-128.5 90.5t-75 141t-24.5 183.5z" />
<glyph unicode="&#x422;" d="M264 1059l49 209h922l-49 -209h-336l-254 -1059h-252l254 1059h-334z" />
<glyph unicode="&#x423;" d="M16 20l88 218q70 -37 160 -37q66 0 121 45t123 155q-84 242 -143.5 467.5t-90.5 399.5h267q12 -74 27.5 -156t31.5 -163t34.5 -155.5t37.5 -134.5q49 88 97 177.5t89 170t74 148.5t51 113h289q-76 -143 -141.5 -262t-126 -223.5t-119 -201t-119.5 -192.5 q-76 -121 -142.5 -200.5t-130 -127t-127 -68t-130.5 -20.5q-61 0 -113.5 12.5t-106.5 34.5z" />
<glyph unicode="&#x424;" d="M145 514q0 117 32 238.5t96.5 222t160.5 167t225 75.5l33 133h203l-33 -133q141 -39 199.5 -132.5t58.5 -238.5q0 -117 -31.5 -239t-96 -222t-161 -166.5t-225.5 -75.5l-35 -143h-202l32 143q-141 39 -198.5 131.5t-57.5 239.5zM350 528q0 -35 3 -67.5t13.5 -60t29 -47 t50.5 -29.5l170 710q-59 -12 -108 -63t-84 -123t-54.5 -156t-19.5 -164zM649 324q59 14 108.5 65t84.5 123t54 156t19 161q0 37 -3 70t-13 59.5t-28.5 46t-51.5 29.5z" />
<glyph unicode="&#x425;" d="M4 0l528 692l-225 576h258l140 -387q68 88 140.5 187t137.5 200h266q-111 -158 -225.5 -303.5t-230.5 -288.5q33 -88 63.5 -184.5t54 -187.5t40 -170t22.5 -134h-250q-14 104 -40 228t-60 239l-330 -467h-289z" />
<glyph unicode="&#x426;" d="M57 0l303 1268h248l-256 -1059h297l254 1059h250l-256 -1059h86l-131 -547h-234l82 338h-643z" />
<glyph unicode="&#x427;" d="M233 739q0 35 5.5 70t13.5 72l94 387h252l-90 -373q-8 -37 -13.5 -67.5t-5.5 -59.5q0 -61 29 -96t115 -35q33 0 71.5 3t73.5 13l150 615h252l-303 -1268h-252l104 444q-29 -8 -74 -14t-92 -6q-92 0 -154.5 22.5t-101.5 64.5t-56.5 99.5t-17.5 128.5z" />
<glyph unicode="&#x428;" d="M8 0l305 1268h203l-254 -1059h162l139 577h197l-137 -577h161l254 1059h203l-303 -1268h-930z" />
<glyph unicode="&#x429;" d="M43 0l303 1268h197l-256 -1065h133l141 583h193l-142 -583h133l256 1065h199l-256 -1065h74l-131 -541h-197l82 338h-729z" />
<glyph unicode="&#x42a;" d="M158 23l250 1036h-166l49 209h411l-108 -443q16 4 36.5 4h37.5q82 0 149.5 -24.5t113.5 -68.5t71.5 -106.5t25.5 -135.5q0 -115 -41 -208t-114.5 -161t-178 -104.5t-231.5 -36.5q-70 0 -152 8t-153 31zM449 205q12 -2 32.5 -2h32.5q63 0 112.5 20.5t83 57t51 86 t17.5 106.5q0 72 -48 113t-126 41h-22.5t-32.5 -2z" />
<glyph unicode="&#x42b;" d="M29 18l301 1250h194l-102 -428q10 2 21.5 2h21.5q135 0 204.5 -80t69.5 -215q0 -102 -25.5 -202.5t-79.5 -180.5t-140 -130t-207 -50q-59 0 -127 7t-131 27zM262 174q27 -6 64 -6q55 0 95 35t67.5 87t41 111.5t13.5 106.5q0 72 -32 109.5t-110 37.5q-16 0 -24 -2zM727 0 l305 1268h195l-303 -1268h-197z" />
<glyph unicode="&#x42c;" d="M76 23l299 1245h252l-107 -449q58 10 105 10q205 0 300 -94t95 -248q0 -131 -47 -226t-130 -156.5t-197 -91t-245 -29.5q-74 0 -155.5 8t-169.5 31zM371 205q18 -2 35.5 -3t39.5 -1q154 0 238 67.5t84 190.5q0 35 -9 64.5t-33 51t-64 34t-99 12.5q-18 0 -44.5 -1.5 t-47.5 -5.5z" />
<glyph unicode="&#x42d;" d="M55 74l101 190q41 -29 101 -50t161 -21q78 0 139 27.5t106.5 74.5t75 109.5t43.5 134.5h-393l53 219h373q2 10 2 37q0 59 -11 110t-38 89t-70 59.5t-104 21.5q-92 0 -145.5 -18.5t-96.5 -40.5l-26 201q53 33 136.5 56t194.5 23q96 0 173 -36.5t130.5 -101t82 -152.5 t28.5 -189q0 -162 -38 -313.5t-116.5 -269t-202.5 -189.5t-296 -72q-78 0 -140.5 12.5t-108.5 29t-74.5 32.5t-39.5 27z" />
<glyph unicode="&#x42e;" d="M29 0l305 1268h188l-123 -518h113q18 82 50 178t81 178t119 136t166 54q104 0 160.5 -71.5t56.5 -225.5q0 -57 -9.5 -155.5t-31 -213t-58 -231t-91 -211t-128 -155t-170.5 -60.5q-102 0 -159.5 72t-57.5 225q0 59 8.5 136t24.5 167h-117l-137 -573h-190zM629 289 q0 -53 12 -87t41 -34q41 0 78 47t67.5 123t54 169t40 183t25.5 168t9 125q0 53 -12 86t-41 33q-41 0 -78 -47t-67.5 -123t-54 -168t-40 -183.5t-25.5 -169t-9 -122.5z" />
<glyph unicode="&#x42f;" d="M2 0q39 66 87 136.5t98.5 141t103.5 137.5t102 122q-63 41 -98 107.5t-35 150.5q0 123 45 214t123 151.5t182.5 91t223.5 30.5q35 0 79.5 -2t91 -5t89.5 -10.5t77 -15.5l-299 -1249h-251l112 467h-135q-88 -111 -172 -227.5t-162 -239.5h-262zM512 825q0 -72 46 -110.5 t151 -38.5h73l95 391q-20 2 -41 4t-52 2q-53 0 -102 -14.5t-87 -45t-60.5 -77.5t-22.5 -111z" />
<glyph unicode="&#x430;" d="M131 352q0 139 47 256t129 200t191.5 129t232.5 46q84 0 170 -16.5t174 -51.5l-127 -522q-8 -37 -12 -72.5t-4 -72.5q0 -59 11 -115.5t30 -112.5l-221 -36q-4 8 -10.5 20t-12.5 26.5t-10 26t-6 17.5q-41 -31 -110.5 -64t-180.5 -33q-135 2 -213 97.5t-78 277.5zM381 373 q0 -53 9 -88t26.5 -55.5t42 -28.5t55.5 -8q57 0 96 25.5t68 60.5q4 29 8 55t12 61l88 365q-23 6 -47 8t-47 2q-72 0 -129 -34t-98 -89t-62.5 -126.5t-21.5 -147.5z" />
<glyph unicode="&#x431;" d="M135 369q0 141 40 278t87 262q70 195 215.5 318t405.5 162q102 14 163.5 21t104.5 17l-8 -208q-31 -10 -101.5 -19.5t-156.5 -23.5q-59 -8 -113.5 -23.5t-105 -46.5t-93.5 -84t-77 -135q59 27 111 38t100 11q61 0 120.5 -18.5t104.5 -59.5t72.5 -105.5t27.5 -158.5 q0 -147 -42 -263t-114.5 -195t-173 -121t-217.5 -42q-78 0 -141 22.5t-110.5 70t-73 123t-25.5 180.5zM383 399q0 -117 36 -163t105 -46q49 0 94.5 28t81 77t57 114.5t21.5 143.5q0 98 -39 137t-102 39q-51 0 -104.5 -16.5t-90.5 -38.5q-59 -156 -59 -275z" />
<glyph unicode="&#x432;" d="M90 31l133 555q31 123 77 201.5t106.5 122.5t132 60.5t153.5 16.5q154 0 243 -66.5t89 -175.5q0 -86 -52 -151.5t-138 -97.5q72 -29 107.5 -82.5t35.5 -118.5q0 -55 -21.5 -110.5t-79 -101.5t-158 -74.5t-257.5 -28.5q-86 0 -175 12t-196 39zM369 188q33 -6 71.5 -9 t67.5 -3q41 0 82 6t72.5 22.5t52 44t20.5 70.5q0 51 -46 71t-132 20h-135zM463 578h119q115 0 160.5 39.5t45.5 89.5q0 41 -28.5 63.5t-83.5 22.5q-94 0 -141.5 -47.5t-63.5 -124.5z" />
<glyph unicode="&#x433;" d="M145 221q0 82 35 139.5t89.5 96.5t121 63.5t129.5 42.5q49 14 92 27.5t75 31t51.5 38t19.5 49.5q0 35 -31 54t-121 19q-82 0 -148.5 -15t-119.5 -36l-19 193q33 12 78 24.5t94.5 20.5t100.5 13t98 5q160 0 239 -66.5t79 -183.5q0 -88 -35 -146.5t-87 -96t-113.5 -60 t-115.5 -39.5q-127 -39 -193.5 -67.5t-66.5 -77.5q0 -41 36 -55.5t128 -14.5q78 0 156 13.5t153 37.5l11 -202q-47 -16 -139.5 -36t-237.5 -20q-94 0 -162 20.5t-112 55.5t-64.5 79t-20.5 93z" />
<glyph unicode="&#x434;" d="M139 354q0 129 40 238.5t108.5 187.5t161 122t198.5 44q49 0 92 -7t72 -24q-4 88 -25.5 144.5t-59.5 89.5t-88.5 44t-109.5 11q-47 0 -89 -8t-91 -29l-16 215q61 20 113.5 28.5t111.5 8.5q106 0 197.5 -29.5t158 -98t103.5 -180.5t37 -273q0 -229 -42 -393t-116 -268.5 t-176.5 -154t-222.5 -49.5q-174 0 -265.5 102.5t-91.5 278.5zM389 354q0 -72 30 -116.5t105 -44.5q49 0 96.5 26.5t85 87t63.5 158.5t34 244q-39 16 -67.5 25t-61.5 9q-70 0 -123 -30.5t-89 -84t-54.5 -124t-18.5 -150.5z" />
<glyph unicode="&#x435;" d="M154 375q0 119 39.5 230.5t116.5 195.5t186.5 135t251.5 51q141 0 231 -69.5t90 -194.5q0 -104 -51 -177t-141.5 -118t-212.5 -65.5t-263 -20.5q0 -37 12.5 -66.5t40 -50t73.5 -32t116 -11.5q82 0 155.5 17.5t108.5 33.5l17 -190q-49 -25 -137.5 -46.5t-192.5 -21.5 q-117 0 -201 30t-137 83t-77.5 126t-24.5 161zM403 516q129 0 212 16.5t130.5 42t65.5 56.5t18 57q0 47 -34 72.5t-95 25.5q-94 0 -179 -64.5t-118 -205.5z" />
<glyph unicode="&#x436;" d="M-16 2l34 166q14 -8 48 -8q45 0 80.5 48t61 123t40 164t14.5 171q0 59 -15.5 97t-49.5 38q-10 0 -18.5 -1t-16.5 -3l16 170q25 10 43.5 12t36.5 2q55 0 90 -29.5t54.5 -76t25.5 -101.5t6 -108q0 -29 -2 -54.5t-6 -48.5h96l94 400h164l-94 -400h92q20 78 45 154t60 134 t83.5 94t116.5 36q25 0 49.5 -3t47.5 -13l-39 -172q-23 6 -47 6q-41 0 -76 -47t-59.5 -120t-38 -160t-13.5 -165q0 -66 12.5 -107.5t43.5 -41.5h23t24 4l-19 -168q-16 -6 -33.5 -10t-42.5 -4q-61 0 -97 26.5t-54.5 68.5t-23.5 93t-5 102q0 41 3 74t7 68h-92l-98 -412h-164 l96 412h-90q-20 -82 -43.5 -159t-58.5 -137.5t-87 -97t-128 -36.5q-25 0 -44.5 3t-51.5 17z" />
<glyph unicode="&#x437;" d="M72 35l90 196q51 -23 119.5 -36t146.5 -13q45 0 93 6.5t87 20.5t63.5 37.5t24.5 58.5q0 27 -15 45.5t-41 28.5t-58.5 14t-67.5 4h-168l43 183h176q98 0 148.5 33.5t50.5 80.5q0 25 -15.5 41.5t-40 26.5t-56 15t-64.5 5q-104 0 -167 -13t-97 -26l-9 189q74 29 167 42 t180 13q94 0 160.5 -19.5t108.5 -52t60.5 -77.5t18.5 -95q0 -59 -41 -131.5t-148 -117.5q68 -25 97.5 -78.5t29.5 -108.5q0 -90 -44 -153.5t-116.5 -103.5t-166 -58.5t-193.5 -18.5q-98 0 -192.5 16.5t-163.5 45.5z" />
<glyph unicode="&#x438;" d="M156 268q0 94 28 219l115 476h252l-109 -459q-16 -61 -24 -111.5t-8 -89.5q0 -106 102 -106q57 0 91 23.5t65 58.5q4 29 7 55t13 61l135 568h252l-137 -570q-8 -37 -13 -72.5t-5 -72.5q0 -59 12 -115.5t31 -112.5l-222 -36l-10 20t-12 26.5t-10 26t-7 17.5 q-41 -31 -106 -64t-143 -33q-166 0 -231.5 78t-65.5 213z" />
<glyph unicode="&#x439;" d="M156 268q0 94 28 219l115 476h252l-109 -459q-16 -61 -24 -111.5t-8 -89.5q0 -106 102 -106q57 0 91 23.5t65 58.5q4 29 7 55t13 61l135 568h252l-137 -570q-8 -37 -13 -72.5t-5 -72.5q0 -59 12 -115.5t31 -112.5l-222 -36l-10 20t-12 26.5t-10 26t-7 17.5 q-41 -31 -106 -64t-143 -33q-166 0 -231.5 78t-65.5 213zM436 1356l193 47q2 -72 32.5 -99.5t75.5 -27.5q49 0 86 26.5t70 98.5l172 -60q-43 -129 -134 -188t-224 -59q-113 0 -189.5 67.5t-81.5 194.5z" />
<glyph unicode="&#x43a;" d="M111 0l231 963h252l-88 -369q37 31 86 76t100 95t99.5 102.5t82.5 95.5h287q-98 -119 -221 -235t-233 -208q37 -45 74.5 -109.5t74.5 -136t67.5 -143.5t51.5 -131h-273q-16 51 -42.5 116.5t-57.5 131t-63.5 123t-63.5 94.5l-110 -465h-254z" />
<glyph unicode="&#x43b;" d="M25 190q43 8 73.5 21.5t52 31t38 37t32.5 42.5q35 49 63.5 113.5t52 136t42 144t35.5 136.5l26 111h656l-234 -963h-246l179 754h-179q-37 -133 -77.5 -268.5t-105 -246t-159 -184t-237.5 -80.5z" />
<glyph unicode="&#x43c;" d="M12 0q33 119 71 246t77 253t77.5 244.5t77.5 219.5h205q6 -43 12.5 -105.5t14.5 -132.5t16 -141.5t15 -134.5q41 70 85 143.5t84.5 141t76.5 127t63 102.5h215q-16 -127 -32.5 -247t-35 -238t-40 -235.5t-46.5 -242.5h-231l168 680l-279 -481h-168l-41 481l-155 -680 h-230z" />
<glyph unicode="&#x43d;" d="M82 0l231 963h252l-90 -373h277l90 373h252l-232 -963h-252l90 381h-276l-90 -381h-252z" />
<glyph unicode="&#x43e;" d="M133 334q0 123 37 239.5t108.5 208.5t178 148.5t245.5 56.5q150 0 241 -91t91 -271q0 -121 -34.5 -238t-105.5 -209t-176.5 -148.5t-244.5 -56.5q-172 0 -256 98.5t-84 262.5zM385 399q0 -96 27.5 -151t111.5 -55q61 0 108.5 36.5t81.5 92t51 120t17 121.5 q0 96 -27.5 151.5t-113.5 55.5q-59 0 -107.5 -37t-81 -92t-50 -119.5t-17.5 -122.5z" />
<glyph unicode="&#x43f;" d="M90 0l221 922q63 20 166 40.5t219 20.5q172 0 247 -73.5t75 -204.5q0 -35 -5 -76t-16 -86l-133 -543h-252l125 510q6 33 14.5 67.5t8.5 69.5q0 47 -25.5 83t-93.5 36q-29 0 -59.5 -5t-59.5 -18l-180 -743h-252z" />
<glyph unicode="&#x440;" d="M-4 -338l303 1256q43 18 92 30.5t99.5 20.5t96.5 11t83 3q190 0 278 -97.5t88 -250.5q0 -127 -36.5 -246t-111.5 -210t-189.5 -145t-268.5 -54q-41 0 -63.5 2t-38.5 6l-80 -326h-252zM379 201q10 -4 22.5 -4h26.5q84 0 151.5 33.5t113.5 91t70.5 134t24.5 160.5 q0 31 -6 60t-22.5 51.5t-47 35.5t-79.5 13q-41 0 -68.5 -4t-50.5 -10z" />
<glyph unicode="&#x441;" d="M158 373q0 133 47 245.5t132 193.5t201.5 127t258.5 46q55 0 97 -4t77 -11t62.5 -16.5t53.5 -21.5l-90 -201q-33 14 -84 25.5t-116 11.5q-84 0 -154 -25.5t-122 -75t-80.5 -121t-28.5 -163.5q0 -41 10 -75t37.5 -58.5t76 -38.5t121.5 -14q80 0 148.5 15t103.5 32l25 -201 q-25 -12 -53.5 -24.5t-67.5 -21.5t-91 -14.5t-124 -5.5q-125 0 -209 32t-135 85t-73.5 126t-22.5 153z" />
<glyph unicode="&#x442;" d="M43 0l221 920q76 27 138.5 40t121.5 13q53 0 99.5 -16.5t74.5 -55.5q47 37 101.5 54.5t97.5 17.5q82 0 134 -50.5t52 -156.5q0 -25 -3 -52.5t-11 -56.5l-156 -657h-204l159 676q4 14 6.5 29.5t2.5 23.5q0 61 -56 62q-20 0 -38.5 -10.5t-34.5 -24.5q0 -47 -13 -99 l-69 -290h-199l72 305q4 12 8 28.5t4 32.5q0 20 -10.5 37.5t-40.5 17.5q-35 0 -66 -10l-186 -778h-205z" />
<glyph unicode="&#x443;" d="M-88 -301l80 201q33 -14 61.5 -21.5t73.5 -7.5q150 0 248 147q-49 197 -89 427.5t-55 517.5h263q2 -74 7 -162t13 -178.5t19.5 -178.5t25.5 -159q94 143 166 310t131 368h268q-53 -141 -104 -262t-105.5 -230t-114 -208t-126.5 -195q-51 -74 -109.5 -147t-127 -132 t-150.5 -96t-178 -37q-127 0 -197 43z" />
<glyph unicode="&#x444;" d="M104 401q0 125 43 227.5t114 176.5t163 117t190 51l95 403l209 43l-109 -456q57 -12 107.5 -41t86 -77t56 -117t20.5 -161q0 -106 -34.5 -205.5t-101 -178.5t-160 -130t-210.5 -61l-77 -330h-197l80 334q-145 35 -210 140.5t-65 264.5zM313 397q0 -86 27 -142t80 -79 l151 617q-59 -10 -106 -50.5t-81 -96.5t-52.5 -122t-18.5 -127zM618 172q59 10 106.5 49t79.5 94.5t49 121t17 128.5q0 86 -21.5 144.5t-80.5 83.5z" />
<glyph unicode="&#x445;" d="M20 0l437 489l-234 474h264l142 -308q61 74 120.5 153t110.5 155h266q-78 -111 -170 -229t-213 -247q72 -135 124.5 -249.5t93.5 -237.5h-259q-33 86 -68.5 167t-66.5 144l-270 -311h-277z" />
<glyph unicode="&#x446;" d="M145 268q0 94 29 219l113 476h250l-109 -459q-16 -61 -24.5 -111.5t-8.5 -89.5q0 -106 103 -106q49 0 81.5 23.5t61.5 58.5q4 29 8 55t13 61l135 568h250l-140 -572q-6 -20 -8 -43.5t-2 -52.5q0 -53 24.5 -97t79.5 -55l-98 -417h-233l73 301q-12 10 -22.5 25t-18.5 42 q-47 -53 -118.5 -85t-143.5 -32q-82 0 -138 20.5t-91 58.5t-50.5 91.5t-15.5 120.5z" />
<glyph unicode="&#x447;" d="M180 565q0 49 17 119l67 279h252l-70 -293q-6 -29 -6 -49q0 -33 13.5 -53.5t35 -33t50 -16.5t61.5 -4t62.5 2t52.5 6l104 441h254l-231 -963h-254l76 315q-90 -12 -168 -12q-68 0 -125.5 14.5t-99.5 46t-66.5 82t-24.5 119.5z" />
<glyph unicode="&#x448;" d="M88 201q0 84 23 168l141 594h199l-146 -603q-4 -16 -11 -51t-7 -67q0 -35 12 -57.5t47 -22.5q31 0 50.5 10t35.5 23q0 39 4 79.5t15 87.5l88 369h188l-88 -375q-10 -35 -15.5 -65.5t-5.5 -54.5q0 -35 13.5 -54.5t46.5 -19.5q31 0 50.5 15.5t31.5 31.5q8 61 14 95t12 63 l144 596h196l-145 -613q-23 -80 -23 -143q0 -35 9.5 -81t31.5 -110l-174 -26q-10 14 -20 31.5t-14 37.5q-25 -31 -74 -56.5t-99 -25.5q-94 0 -149 64q-37 -35 -85 -50.5t-93 -15.5q-109 0 -156 65.5t-47 160.5z" />
<glyph unicode="&#x449;" d="M80 201q0 41 5 84t15 84l144 594h192l-143 -603q-4 -16 -11.5 -51t-7.5 -67q0 -35 12.5 -57.5t47.5 -22.5q31 0 49 10t35 23q0 39 3 79.5t15 87.5l88 369h185l-88 -375q-10 -35 -15.5 -65.5t-5.5 -54.5q0 -35 12.5 -54.5t44.5 -19.5q29 0 49.5 15.5t32.5 31.5 q4 61 10.5 95t12.5 63l143 596h195l-135 -564q-10 -35 -15.5 -70.5t-5.5 -68.5q0 -45 15.5 -79t58.5 -44l-96 -401h-181l70 293q-6 6 -14.5 19.5t-12.5 29.5q-35 -47 -86 -74t-98 -27q-45 0 -81 14.5t-66 49.5q-35 -35 -84.5 -50.5t-89.5 -15.5q-104 0 -151.5 65.5 t-47.5 160.5z" />
<glyph unicode="&#x44a;" d="M164 25l176 729h-162l51 209h410l-84 -347q39 10 79 14.5t71 4.5q154 0 232.5 -77t78.5 -212q0 -78 -31 -144.5t-93.5 -115.5t-156.5 -77.5t-221 -28.5q-88 0 -170 10t-180 35zM453 184q35 -4 55 -6t49 -2q106 0 159.5 39t53.5 111q0 57 -33 84.5t-119 27.5q-35 0 -59 -4 t-51 -12z" />
<glyph unicode="&#x44b;" d="M41 18l223 945h195l-78 -328q10 2 23.5 3t23.5 1q135 0 207 -68.5t72 -183.5q0 -98 -32 -173t-87.5 -126t-130 -77.5t-160.5 -26.5q-59 0 -126 7t-130 27zM270 172q27 -6 64 -6q47 0 81 15.5t55.5 41t31.5 59t10 68.5q0 43 -28.5 73t-116.5 30h-31zM717 0l231 963h193 l-230 -963h-194z" />
<glyph unicode="&#x44c;" d="M92 27l225 936h254l-84 -347q16 6 39 9.5t47.5 5.5t47 3t38.5 1q166 0 255.5 -77t89.5 -212q0 -78 -33 -144.5t-99.5 -115.5t-167 -77.5t-233.5 -28.5q-90 0 -182 11t-197 36zM385 184q33 -4 66.5 -6t62.5 -2q117 0 179.5 39t62.5 111q-1 112 -183 112q-35 0 -71.5 -4 t-61.5 -14z" />
<glyph unicode="&#x44d;" d="M102 39l78 201q33 -14 91.5 -28.5t131.5 -14.5q137 0 218 49t116 145h-393l45 191h371q-4 88 -57.5 137t-180.5 49q-82 0 -133 -15.5t-88 -31.5l-18 203q51 27 121.5 44t175.5 17q119 0 200.5 -31.5t133 -87t75 -129t23.5 -155.5q0 -141 -40 -253t-117 -190t-191.5 -120 t-262.5 -42q-84 0 -167.5 16.5t-131.5 45.5z" />
<glyph unicode="&#x44e;" d="M27 0l229 963h188l-94 -381h123q23 78 56.5 151.5t80.5 130t109.5 90t142.5 33.5q63 0 106.5 -22.5t69 -61.5t36.5 -89t11 -105q0 -63 -9 -142.5t-29.5 -160t-54.5 -158.5t-82 -137.5t-112.5 -96.5t-146.5 -37q-63 0 -106 24t-68.5 61.5t-37 89t-11.5 106.5q0 33 2 70 t6 78h-125l-98 -406h-186zM614 303q0 -78 18.5 -106.5t51.5 -28.5q57 0 98 57.5t66.5 136t37 162.5t11.5 138q0 78 -18.5 106.5t-49.5 28.5q-39 0 -69.5 -27t-55 -70t-41 -96t-27.5 -108.5t-16.5 -105.5t-5.5 -87z" />
<glyph unicode="&#x44f;" d="M10 0q80 117 162 220t150 175q-68 37 -93.5 90.5t-25.5 104.5q0 109 45 184.5t118.5 121.5t167 66.5t189.5 20.5q47 0 100.5 -4t103.5 -11t96 -16.5t79 -17.5l-221 -934h-254l82 342h-164q-72 -84 -134.5 -167t-121.5 -175h-279zM449 635q0 -29 15 -48.5t39.5 -31.5 t54.5 -17.5t58 -5.5h138l59 246q-18 2 -49 5t-78 3q-35 0 -77 -6t-77.5 -22.5t-59 -46t-23.5 -76.5z" />
<glyph unicode="&#x450;" d="M154 375q0 119 39.5 230.5t116.5 195.5t186.5 135t251.5 51q141 0 231 -69.5t90 -194.5q0 -104 -51 -177t-141.5 -118t-212.5 -65.5t-263 -20.5q0 -37 12.5 -66.5t40 -50t73.5 -32t116 -11.5q82 0 155.5 17.5t108.5 33.5l17 -190q-49 -25 -137.5 -46.5t-192.5 -21.5 q-117 0 -201 30t-137 83t-77.5 126t-24.5 161zM403 516q129 0 212 16.5t130.5 42t65.5 56.5t18 57q0 47 -34 72.5t-95 25.5q-94 0 -179 -64.5t-118 -205.5zM524 1223l125 192l324 -241l-92 -138z" />
<glyph unicode="&#x451;" d="M154 375q0 119 39.5 230.5t116.5 195.5t186.5 135t251.5 51q141 0 231 -69.5t90 -194.5q0 -104 -51 -177t-141.5 -118t-212.5 -65.5t-263 -20.5q0 -37 12.5 -66.5t40 -50t73.5 -32t116 -11.5q82 0 155.5 17.5t108.5 33.5l17 -190q-49 -25 -137.5 -46.5t-192.5 -21.5 q-117 0 -201 30t-137 83t-77.5 126t-24.5 161zM403 516q129 0 212 16.5t130.5 42t65.5 56.5t18 57q0 47 -34 72.5t-95 25.5q-94 0 -179 -64.5t-118 -205.5zM428 1223q0 35 13.5 63.5t34 49t47 31.5t52.5 11q51 0 88 -33.5t37 -89.5q0 -35 -14 -62.5t-35.5 -48t-48 -31.5 t-51.5 -11q-53 0 -88 32.5t-35 88.5zM833 1223q0 70 47.5 112.5t102.5 42.5q51 0 87 -33.5t36 -89.5q0 -35 -14.5 -62.5t-36 -48t-48 -31.5t-51.5 -11q-53 0 -88 32.5t-35 88.5z" />
<glyph unicode="&#x452;" d="M117 0l262 1090h-113l41 170h111l31 118l260 43l-39 -161h262l-41 -170h-262l-33 -136q25 10 63.5 18.5t92.5 8.5q70 0 120 -22.5t82.5 -61.5t47 -91t14.5 -114q0 -37 -5 -74.5t-16 -78.5l-118 -500q-23 -94 -48.5 -166t-66.5 -119t-102.5 -71.5t-157.5 -24.5 q-39 0 -83 10t-75 25l72 201q23 -8 39 -12.5t47 -4.5t50 13.5t33.5 35t22.5 51t17 62.5l110 467q6 27 13.5 61.5t7.5 71.5q0 49 -19.5 88t-79.5 39q-29 0 -53 -3t-53 -7l-182 -756h-252z" />
<glyph unicode="&#x453;" d="M145 221q0 82 35 139.5t89.5 96.5t121 63.5t129.5 42.5q49 14 92 27.5t75 31t51.5 38t19.5 49.5q0 35 -31 54t-121 19q-82 0 -148.5 -15t-119.5 -36l-19 193q33 12 78 24.5t94.5 20.5t100.5 13t98 5q160 0 239 -66.5t79 -183.5q0 -88 -35 -146.5t-87 -96t-113.5 -60 t-115.5 -39.5q-127 -39 -193.5 -67.5t-66.5 -77.5q0 -41 36 -55.5t128 -14.5q78 0 156 13.5t153 37.5l11 -202q-47 -16 -139.5 -36t-237.5 -20q-94 0 -162 20.5t-112 55.5t-64.5 79t-20.5 93zM530 1174l324 241l125 -192l-357 -187z" />
<glyph unicode="&#x454;" d="M176 373q0 133 44 245.5t126 193.5t195.5 127t255.5 46q86 0 161.5 -18.5t128.5 -40.5l-90 -201q-33 14 -84 28.5t-116 14.5q-117 0 -203 -47t-129 -139h381l-47 -191h-369q4 -92 58.5 -143t187.5 -51q80 0 139 18t94 33l25 -201q-49 -25 -131 -47.5t-187 -22.5 q-119 0 -201.5 29t-136 81t-78 125t-24.5 161z" />
<glyph unicode="&#x455;" d="M100 63l95 199q41 -23 112.5 -49.5t171.5 -26.5q109 0 150 29t41 68q0 18 -7.5 32.5t-24.5 27.5t-48 26.5t-78 31.5q-57 20 -100 43t-72 52.5t-43 68.5t-14 92q0 150 105.5 240t316.5 90q104 0 191 -18.5t138 -42.5l-92 -199q-47 23 -107.5 37t-152.5 14q-20 0 -46 -3 t-48.5 -13t-37.5 -27.5t-15 -44.5q0 -18 5 -31.5t21.5 -27t47 -27.5t81.5 -33q61 -25 105.5 -49t74 -55t43 -72t13.5 -98q0 -59 -24.5 -116.5t-77 -103.5t-136.5 -75t-201 -29q-84 0 -147.5 10.5t-110.5 25t-78.5 29.5t-50.5 25z" />
<glyph unicode="&#x456;" d="M227 754l52 209h518l-140 -588q-12 -43 -12 -76q0 -102 105 -102q35 0 82 7t104 27l4 -204q-76 -29 -142.5 -39.5t-123.5 -10.5q-145 0 -215 71t-70 200q0 68 23 158l82 348h-267zM535 1223q0 39 14 72.5t37.5 56t54.5 36t64 13.5q59 0 103 -35t44 -113 q0 -37 -15.5 -69.5t-40 -55t-55 -36t-61.5 -13.5q-66 0 -105.5 35t-39.5 109z" />
<glyph unicode="&#x457;" d="M227 754l52 209h518l-140 -588q-12 -43 -12 -76q0 -102 105 -102q35 0 82 7t104 27l4 -204q-76 -29 -142.5 -39.5t-123.5 -10.5q-145 0 -215 71t-70 200q0 68 23 158l82 348h-267zM354 1223q0 35 13.5 63.5t34 49t47 31.5t52.5 11q51 0 88 -33.5t37 -89.5 q0 -35 -14 -62.5t-35.5 -48t-48 -31.5t-51.5 -11q-53 0 -88 32.5t-35 88.5zM759 1223q0 70 47.5 112.5t102.5 42.5q51 0 87 -33.5t36 -89.5q0 -35 -14.5 -62.5t-36 -48t-48 -31.5t-51.5 -11q-53 0 -88 32.5t-35 88.5z" />
<glyph unicode="&#x458;" d="M-12 -256l98 203q45 -29 96 -51.5t117 -22.5q78 0 127 38t74 140l168 703h-389l51 209h641l-219 -912q-29 -117 -69 -194.5t-93 -122.5t-121 -63.5t-152 -18.5q-104 0 -190 25.5t-139 66.5zM664 1223q0 39 14 72.5t37.5 56t54.5 36t64 13.5q61 0 105 -35t44 -113 q0 -37 -15.5 -69.5t-40 -55t-55 -36t-61.5 -13.5q-66 0 -106.5 35t-40.5 109z" />
<glyph unicode="&#x459;" d="M-2 -27v195q39 0 72 29t59.5 75.5t48 104t38.5 124t34 136.5l80 326h487l-84 -351q10 2 26.5 2h33.5q57 0 103 -18t78 -51t48 -75t16 -87q0 -188 -100 -293.5t-285 -105.5q-53 0 -124.5 7t-122.5 25l188 779h-125l-51 -189q-23 -84 -50.5 -176t-63.5 -177t-83 -152.5 t-110 -100.5q-25 -14 -54.5 -19.5t-58.5 -7.5zM625 152q12 -4 25.5 -5.5t25.5 -1.5q86 0 132 56.5t46 140.5q0 47 -28.5 79t-92.5 32h-39z" />
<glyph unicode="&#x45a;" d="M35 0l229 963h187l-91 -373h166l90 373h183l-86 -357h63q117 0 182.5 -66.5t65.5 -160.5q0 -188 -101.5 -291.5t-283.5 -103.5q-53 0 -127 7t-125 25l98 402h-168l-98 -418h-184zM606 152q14 -4 28.5 -5.5t27.5 -1.5q86 0 132 55.5t46 137.5q0 47 -30 77.5t-93 30.5 h-21.5t-19.5 -2z" />
<glyph unicode="&#x45b;" d="M117 0l262 1090h-113l41 170h111l31 118l260 43l-39 -161h262l-41 -170h-262l-33 -136q25 10 63.5 18.5t92.5 8.5q70 0 120 -22.5t82.5 -61.5t47 -91t14.5 -114q0 -37 -5 -74.5t-16 -78.5l-129 -539h-252l121 506q6 27 13.5 61.5t7.5 71.5q0 49 -19.5 88t-79.5 39 q-29 0 -53 -3t-53 -7l-182 -756h-252z" />
<glyph unicode="&#x45c;" d="M111 0l231 963h252l-88 -369q37 31 86 76t100 95t99.5 102.5t82.5 95.5h287q-98 -119 -221 -235t-233 -208q37 -45 74.5 -109.5t74.5 -136t67.5 -143.5t51.5 -131h-273q-16 51 -42.5 116.5t-57.5 131t-63.5 123t-63.5 94.5l-110 -465h-254zM567 1174l324 241l125 -192 l-357 -187z" />
<glyph unicode="&#x45d;" d="M156 268q0 94 28 219l115 476h252l-109 -459q-16 -61 -24 -111.5t-8 -89.5q0 -106 102 -106q57 0 91 23.5t65 58.5q4 29 7 55t13 61l135 568h252l-137 -570q-8 -37 -13 -72.5t-5 -72.5q0 -59 12 -115.5t31 -112.5l-222 -36l-10 20t-12 26.5t-10 26t-7 17.5 q-41 -31 -106 -64t-143 -33q-166 0 -231.5 78t-65.5 213zM454 1223l125 192l324 -241l-92 -138z" />
<glyph unicode="&#x45e;" d="M-88 -301l80 201q33 -14 61.5 -21.5t73.5 -7.5q150 0 248 147q-49 197 -89 427.5t-55 517.5h263q2 -74 7 -162t13 -178.5t19.5 -178.5t25.5 -159q94 143 166 310t131 368h268q-53 -141 -104 -262t-105.5 -230t-114 -208t-126.5 -195q-51 -74 -109.5 -147t-127 -132 t-150.5 -96t-178 -37q-127 0 -197 43zM399 1356l193 47q2 -72 32.5 -99.5t75.5 -27.5q49 0 86 26.5t70 98.5l172 -60q-43 -129 -134 -188t-224 -59q-113 0 -189.5 67.5t-81.5 194.5z" />
<glyph unicode="&#x45f;" d="M156 268q0 94 28 219l115 476h252l-109 -459q-16 -61 -24 -111.5t-8 -89.5q0 -106 102 -106q57 0 91 23.5t65 58.5q4 29 7 55t13 61l135 568h252l-137 -570q-8 -37 -13 -72.5t-5 -72.5q0 -59 12 -115.5t31 -112.5l-222 -36l-10 20t-12 26.5t-10 26t-7 17.5 q-41 -31 -106 -64t-143 -33q-166 0 -231.5 78t-65.5 213zM299 -338l76 260h229l-76 -260h-229z" />
<glyph unicode="&#x462;" d="M154 23l243 1001h-149l51 209h145l29 117h246l-29 -117h309l-51 -209h-309l-51 -217q16 4 36.5 4h34.5q166 0 265.5 -89t99.5 -239q0 -115 -41 -207t-114.5 -156.5t-178 -100t-231.5 -35.5q-70 0 -152 8t-153 31zM444 205q12 -2 33 -2h33q129 0 197.5 72.5t68.5 187.5 q0 70 -51 108.5t-129 38.5h-21.5t-33.5 -2z" />
<glyph unicode="&#x463;" d="M4 0l221 922q59 23 137 36t146 13q61 0 103 -19.5t68 -53.5t37 -78t11 -93q0 -31 -4 -61.5t-10 -59.5h63q117 0 182.5 -66.5t65.5 -160.5q0 -188 -101.5 -291.5t-283.5 -103.5q-27 0 -61.5 2t-71.5 5t-72 9t-59 16l114 482q16 70 27.5 120t11.5 89q0 88 -57 88 q-14 0 -38.5 -3.5t-43.5 -13.5l-188 -778h-197zM606 152q14 -4 28.5 -5.5t27.5 -1.5q86 0 132 55.5t46 137.5q0 47 -30 77.5t-93 30.5h-21.5t-19.5 -2z" />
<glyph unicode="&#x472;" d="M137 367q0 80 12.5 180t42 203.5t75.5 202t115 175t160 122.5t210 46q166 0 260 -107.5t94 -285.5q0 -80 -12.5 -180t-41 -203.5t-75.5 -202t-114.5 -175t-159 -123t-209.5 -46.5q-168 0 -262.5 107.5t-94.5 286.5zM389 385q0 -80 27.5 -136t105.5 -56q49 0 91 25.5 t76 69.5t60.5 102.5t47.5 123.5q-23 -8 -38.5 -10t-37.5 -2q-45 0 -72.5 13t-48 28.5t-40 29t-48.5 13.5t-51.5 -7.5t-59.5 -23.5q-12 -92 -12 -170zM436 727q35 16 61.5 23.5t57.5 7.5q45 0 72.5 -13.5t48 -29t40 -28.5t48.5 -13q20 0 35.5 2t38.5 12q8 53 12 102.5t4 94.5 q0 80 -27.5 136t-103.5 56q-53 0 -96 -28.5t-79 -75.5t-63.5 -111.5t-48.5 -134.5z" />
<glyph unicode="&#x473;" d="M133 334q0 123 37 239.5t108.5 208.5t178 148.5t245.5 56.5q150 0 241 -91t91 -271q0 -121 -34.5 -238t-105.5 -209t-176.5 -148.5t-244.5 -56.5q-172 0 -256 98.5t-84 262.5zM385 399q0 -96 27.5 -151t111.5 -55q72 0 125 48t86 119q-25 -6 -51 -6q-45 0 -72.5 13.5 t-47 29t-39 28.5t-50.5 13q-25 0 -44 -4t-46 -16v-19zM418 569q29 14 53.5 18.5t50.5 4.5q45 0 73 -13.5t48.5 -28.5t39.5 -28.5t48 -13.5q25 0 47 8q2 12 3 23.5t1 23.5q0 96 -27.5 151.5t-113.5 55.5q-78 0 -136.5 -60.5t-86.5 -140.5z" />
<glyph unicode="&#x474;" d="M256 944q0 166 6 324h258q-6 -131 -12 -249t-10 -234.5t-7.5 -238.5t-5.5 -261q51 117 94.5 214t81 182t72.5 164t72 161q37 84 72.5 138t74.5 86t84 44t101 12q51 0 87 -14.5t89 -67.5l-135 -153q-25 27 -48 26q-23 0 -40 -17.5t-34.5 -45t-32.5 -61t-30 -66.5 q-49 -104 -91 -190.5t-90 -181.5t-110.5 -217t-156.5 -298h-256q-10 137 -17.5 294t-11.5 320.5t-4 329.5z" />
<glyph unicode="&#x475;" d="M209 963h242q-4 -74 -5.5 -160t-0.5 -173t3.5 -170t6.5 -153q37 66 65.5 119t56 102.5t56.5 101.5t61 115q55 106 135 174t201 68q41 0 85 -7t89 -30l-92 -190q-23 12 -41 15t-35 3q-33 0 -61 -16.5t-53 -59.5q-117 -197 -228.5 -382t-204.5 -320h-190q-39 182 -62.5 427 t-27.5 536z" />
<glyph unicode="&#x48a;" d="M53 0l303 1268h226l-203 -842q49 86 115.5 193.5t142.5 220t152.5 224.5t148.5 204h223l-246 -1026h103q-14 -88 -40 -165t-68 -147.5t-103.5 -135t-142.5 -128.5l-125 105q43 39 95 95t85 134h-86l213 877q-80 -117 -152.5 -227.5t-139.5 -218t-131.5 -214 t-129.5 -217.5h-240zM522 1640l191 48q2 -70 32.5 -97.5t77.5 -27.5t84 25.5t72 97.5l172 -58q-45 -129 -136 -189.5t-222 -60.5q-115 0 -191 69t-80 193z" />
<glyph unicode="&#x48b;" d="M156 268q0 94 28 219l115 476h252l-109 -459q-16 -61 -24 -111.5t-8 -89.5q0 -106 102 -106q57 0 91 23.5t65 58.5q4 29 7 55t13 61l135 568h252l-137 -570q-8 -37 -13 -72.5t-5 -76.5q0 -27 12 -44.5t27.5 -28.5t32 -17.5t26.5 -8.5q-12 -53 -31.5 -101t-52.5 -99 t-82 -105.5t-123 -120.5l-135 113q47 35 89 77t75 114q-16 6 -32.5 21t-23.5 30q-41 -31 -106 -64t-143 -33q-166 0 -231.5 78t-65.5 213zM434 1356l191 47q2 -72 33.5 -99.5t76.5 -27.5q47 0 84 26.5t72 98.5l172 -60q-45 -129 -135 -188t-223 -59q-113 0 -190 67.5 t-81 194.5z" />
<glyph unicode="&#x48c;" d="M119 23l223 925h-123l47 201h123l29 119h244l-27 -119h199l-48 -201h-200l-35 -145q16 4 37.5 4h36.5q176 0 281.5 -87t105.5 -237q0 -115 -41 -207t-118 -156.5t-185.5 -100t-241.5 -35.5q-70 0 -153 8t-154 31zM410 205q12 -2 33.5 -2h33.5q141 0 213 72.5t72 187.5 q0 70 -54.5 106.5t-146.5 36.5h-22.5t-34.5 -2z" />
<glyph unicode="&#x48d;" d="M152 25l165 696h-110l41 170h110l27 108h250l-27 -108h264l-41 -170h-262l-30 -123q39 10 78.5 13t70.5 3q154 0 237 -70.5t83 -207.5q0 -78 -32 -142.5t-94.5 -112.5t-157.5 -74.5t-222 -26.5q-88 0 -170 10t-180 35zM438 184q35 -4 55.5 -6t51.5 -2q217 0 217 139 q0 57 -36 85t-122 28q-37 0 -62.5 -4t-47.5 -10z" />
<glyph unicode="&#x48e;" d="M78 0l301 1251q96 16 181 23.5t151 7.5q113 0 193.5 -25.5t133 -72.5t76 -111.5t23.5 -140.5q0 -154 -66.5 -258.5t-183.5 -163.5l65 -191l-174 -75l-69 207q-96 -20 -222 -21h-53l-104 -430h-252zM481 635h62q51 0 98 6l-49 143l172 78l53 -153q74 61 74 180 q0 82 -44 128t-167 46q-29 0 -48.5 -1t-47.5 -5z" />
<glyph unicode="&#x48f;" d="M-4 -338l303 1256q43 18 92 30.5t99.5 20.5t96.5 11t83 3q190 0 278 -97.5t88 -250.5q0 -162 -59 -305.5t-178 -235.5l78 -215l-175 -69l-73 198q-43 -12 -93.5 -20t-105.5 -8q-41 0 -63.5 2t-38.5 6l-80 -326h-252zM377 190q18 -6 49 -6q74 0 131 23l-59 168l174 69 l47 -133q18 25 32.5 60t23.5 72.5t14.5 75.5t5.5 71q0 39 -5.5 72.5t-21.5 59.5t-48 40t-83 14q-43 0 -71.5 -4t-51.5 -10z" />
<glyph unicode="&#x490;" d="M29 0l49 209h184l254 1059h479l58 241h235l-108 -450h-461l-205 -850h274l-49 -209h-710z" />
<glyph unicode="&#x491;" d="M141 0l230 963h497l56 225h233l-106 -434h-478l-180 -754h-252z" />
<glyph unicode="&#x492;" d="M29 0l49 209h184l78 328h-182l47 200h182l129 531h713l-49 -209h-461l-78 -322h274l-49 -200h-274l-78 -328h274l-49 -209h-710z" />
<glyph unicode="&#x493;" d="M152 225q0 53 18 96.5t51 76t75 56t89 40.5l-154 57l62 131l293 -109q78 23 123 56t45 80q0 35 -31 59.5t-121 24.5q-82 0 -146.5 -15.5t-117.5 -32.5l-12 185q29 10 70.5 20.5t90 18.5t99.5 13t98 5q160 0 240 -66.5t80 -183.5q0 -104 -53.5 -165.5t-125.5 -90.5 l144 -53l-60 -131l-276 102q-111 -33 -171.5 -67.5t-60.5 -81.5q0 -41 36 -59.5t128 -18.5q78 0 154 12.5t151 32.5l11 -188q-47 -16 -136.5 -36t-236.5 -20q-92 0 -159.5 20.5t-111.5 56.5t-64.5 81t-20.5 94z" />
<glyph unicode="&#x494;" d="M63 0l304 1268h733l-49 -209h-480l-65 -262q37 8 73.5 11t69.5 3q174 0 262 -106.5t88 -301.5q0 -143 -36.5 -276t-114.5 -236.5t-196.5 -166t-284.5 -62.5q-51 0 -101 12l58 213q35 -8 75 -8q74 0 138.5 37t113.5 104.5t77 163t28 209.5q0 119 -49.5 164t-137.5 45 q-27 0 -54.5 -3t-57.5 -7l-142 -592h-252z" />
<glyph unicode="&#x495;" d="M111 0l233 963h660l-52 -209h-403l-45 -181q35 8 80 12.5t73 4.5q90 0 153.5 -30t103.5 -79t58.5 -114.5t18.5 -139.5q0 -98 -28.5 -200.5t-91 -185.5t-164 -136t-244.5 -53q-33 0 -61.5 3t-57.5 13l49 180q12 -4 28.5 -5t29.5 -1q82 0 138 30t91 80t51.5 117.5 t16.5 143.5q0 104 -52.5 140t-128.5 36q-53 0 -110 -12l-90 -377h-256z" />
<glyph unicode="&#x496;" d="M-23 0q43 98 94.5 194.5t106.5 185.5t113.5 167t114.5 141q-43 154 -70 298t-41 282h205q4 -156 20.5 -282t40.5 -228l123 510h197l-125 -518q88 117 165.5 239.5t151.5 278.5h211q-84 -150 -186.5 -308.5t-223.5 -306.5q35 -78 58.5 -195.5t34.5 -254.5h67l-129 -541 h-176l82 338h-35q2 86 0 172t-9 166t-18.5 149.5t-25.5 122.5l-148 -610h-196l149 618q-41 -57 -87 -128.5t-92 -151.5t-88 -166t-75 -172h-209z" />
<glyph unicode="&#x497;" d="M-16 2l34 166q14 -8 48 -8q45 0 80.5 48t61 123t40 164t14.5 171q0 59 -15.5 97t-49.5 38q-10 0 -18.5 -1t-16.5 -3l16 170q25 10 43.5 12t36.5 2q55 0 90 -29.5t54.5 -76t25.5 -101.5t6 -108q0 -29 -2 -54.5t-6 -48.5h96l94 400h164l-94 -400h92q20 78 45 154t60 134 t84 94t116 36q25 0 49.5 -3t47.5 -13l-39 -172q-23 6 -47 6q-41 0 -76 -47t-59.5 -120t-38 -160t-13.5 -165q0 -80 15.5 -115.5t52.5 -35.5q27 0 49 6l-102 -426h-177l68 276q-27 18 -42 47t-23.5 64t-10.5 72.5t-2 74.5q0 41 3 74t7 68h-92l-98 -412h-164l96 412h-90 q-20 -82 -43.5 -159t-58.5 -137.5t-87 -97t-128 -36.5q-25 0 -44.5 3t-51.5 17z" />
<glyph unicode="&#x498;" d="M18 78l117 201q72 -47 145.5 -66.5t161.5 -19.5q78 0 135.5 17t94.5 45t54 64.5t17 77.5q0 72 -55 114t-172 42h-188l47 207h153q53 0 106.5 10t95.5 34.5t68.5 63.5t26.5 97q0 55 -45 83.5t-121 28.5q-66 0 -140.5 -17.5t-151.5 -58.5l-45 209q86 41 181 62.5t220 21.5 q102 0 170 -24.5t108.5 -64.5t58 -91t17.5 -104q0 -111 -59.5 -200t-204.5 -136q57 -25 92 -57.5t55.5 -68.5t27.5 -72t7 -66q0 -68 -21.5 -137.5t-75.5 -130t-143 -104.5t-225 -58q-6 -8 -11 -15.5t-9 -15.5q45 -23 63.5 -53.5t18.5 -67.5q0 -84 -70.5 -130t-181.5 -46 q-98 0 -176 41l53 119q23 -12 52.5 -19.5t58.5 -7.5q47 0 62.5 18.5t15.5 32.5q0 23 -11.5 38t-42.5 26l-37 12q10 18 20.5 33.5t20.5 29.5q-102 6 -181 32t-157 71z" />
<glyph unicode="&#x499;" d="M72 35l90 196q51 -23 119.5 -36t146.5 -13q45 0 93 6.5t87 20.5t63.5 37.5t24.5 58.5q0 27 -15 45.5t-41 28.5t-58.5 14t-67.5 4h-168l43 183h176q98 0 148.5 33.5t50.5 80.5q0 25 -15.5 41.5t-40 26.5t-56 15t-64.5 5q-104 0 -167 -13t-97 -26l-9 189q74 29 167 42 t180 13q94 0 160.5 -19.5t108.5 -52t60.5 -77.5t18.5 -95q0 -59 -41 -131.5t-148 -117.5q68 -25 97.5 -78.5t29.5 -108.5q0 -78 -31.5 -135t-87 -97t-128 -63.5t-154.5 -31.5q-6 -8 -11.5 -15.5t-9.5 -15.5q45 -23 63.5 -53.5t18.5 -67.5q0 -84 -70.5 -130t-181.5 -46 q-98 0 -176 41l53 119q23 -12 52.5 -19.5t58.5 -7.5q47 0 62.5 18.5t15.5 32.5q0 23 -11.5 38t-41.5 26l-37 12q10 18 20 33.5t21 29.5q-84 4 -163 19.5t-138 40.5z" />
<glyph unicode="&#x49a;" d="M68 0l303 1268h247l-126 -529q63 57 126.5 126t122 139.5t108.5 139t87 124.5h283q-47 -63 -105.5 -139t-128.5 -157t-145.5 -161t-155.5 -152q70 -88 123 -207.5t100 -248.5h103l-129 -541h-215l82 338h-39q-14 72 -39 155t-57.5 163.5t-72.5 153.5t-83 122l-142 -594 h-247z" />
<glyph unicode="&#x49b;" d="M111 0l231 963h248l-86 -369q37 31 86 76t98 95t96 102.5t82 95.5h289q-98 -119 -219 -235t-231 -208q45 -57 92 -142t88 -175h114l-114 -467h-213l65 264h-43q-16 51 -41.5 116.5t-55.5 131t-62.5 123t-63.5 94.5l-111 -465h-249z" />
<glyph unicode="&#x49c;" d="M31 0l303 1268h227l-125 -518h84l68 280h139l-70 -295q104 133 193.5 265.5t161.5 267.5h241q-31 -55 -74.5 -128t-101 -154t-124 -165t-140.5 -164q29 -70 55.5 -141.5t49 -151t42 -170t33.5 -194.5h-225q-10 86 -26.5 169t-37 157.5t-43 140t-40.5 115.5l-68 -283h-141 l65 274h-82l-137 -573h-227z" />
<glyph unicode="&#x49d;" d="M43 0l231 963h228l-92 -381h84l53 221h141l-55 -230q41 43 86 93.5t88 102.5t81 102.5t66 91.5h248q-39 -51 -87 -108.5t-100 -116t-104.5 -115t-101.5 -105.5q31 -47 57.5 -108.5t48 -130t36 -140t24.5 -139.5h-227q-16 123 -52.5 244t-89.5 213l-59 -244h-141l55 233 h-84l-107 -446h-227z" />
<glyph unicode="&#x49e;" d="M113 0l247 1028h-116l41 176h116l35 146h240l-35 -146h119l-41 -176h-121l-72 -297q68 57 133.5 128t124 143.5t108.5 141t87 124.5h276q-47 -63 -106 -139t-128 -157t-144.5 -161t-155.5 -152q33 -43 68.5 -100t70.5 -136t70 -182.5t69 -240.5h-247q-14 72 -40 155 t-60 163.5t-74.5 153.5t-83.5 122l-144 -594h-237z" />
<glyph unicode="&#x49f;" d="M113 0l198 829h-104l33 134h104l21 81h241l-18 -81h117l-33 -134h-117l-59 -247q43 35 97 83t109.5 99t106.5 103.5t88 95.5h277q-104 -119 -231.5 -235t-237.5 -208q37 -45 75.5 -109.5t74.5 -136t67.5 -143.5t52.5 -131h-270q-16 51 -43 116.5t-59 131t-66.5 124 t-67.5 97.5l-113 -469h-243z" />
<glyph unicode="&#x4a0;" d="M166 0l254 1059h-174l49 209h414l-127 -527q55 57 110.5 126t108.5 139.5t100 138t84 123.5h275q-47 -63 -101.5 -138t-118 -155t-133 -160t-143.5 -151q41 -61 75.5 -139.5t63.5 -165.5t52.5 -179t41.5 -180h-252q-14 72 -33.5 155t-45 162.5t-56 150.5t-65.5 120 l-142 -588h-237z" />
<glyph unicode="&#x4a1;" d="M166 0l184 760h-160l50 203h393l-90 -375q39 33 84 80t91 97t89 102.5t78 95.5h280q-98 -119 -206.5 -235t-219.5 -208q37 -45 72 -109.5t66.5 -136t58.5 -143.5t47 -131h-270q-16 51 -38 116.5t-47.5 131t-54 123t-59.5 94.5l-113 -465h-235z" />
<glyph unicode="&#x4a2;" d="M55 0l305 1268h248l-121 -500h295l121 500h250l-256 -1059h86l-131 -547h-234l82 338h-102l135 559h-295l-135 -559h-248z" />
<glyph unicode="&#x4a3;" d="M82 0l231 963h248l-90 -373h262l90 373h248l-182 -760h88l-115 -467h-225l65 264h-110l90 381h-262l-88 -381h-250z" />
<glyph unicode="&#x4a4;" d="M53 0l305 1268h252l-121 -500h265l120 500h404l-49 -201h-152l-256 -1067h-252l136 559h-265l-135 -559h-252z" />
<glyph unicode="&#x4a5;" d="M82 0l231 963h252l-90 -373h184l91 373h421l-51 -203h-168l-180 -760h-252l88 381h-184l-90 -381h-252z" />
<glyph unicode="&#x4a6;" d="M31 0l303 1268h528l-110 -463q27 6 55 6q119 0 173 -79t54 -247q0 -154 -35.5 -302t-103.5 -264t-163 -186.5t-214 -70.5q-16 0 -33.5 1t-33.5 3l53 189q14 -2 23.5 -2h25.5q51 0 101.5 51t90 138t63 201.5t23.5 243.5q0 57 -19 95.5t-75 38.5q-10 0 -30 -5l-148 -616 h-197l259 1077h-136l-258 -1077h-196z" />
<glyph unicode="&#x4a7;" d="M-14 0l225 936q61 18 132 32.5t138 14.5q74 0 122 -18.5t78 -52t42 -80t12 -99.5q0 -33 -4 -68.5t-10 -72.5q16 4 30.5 6t30.5 2q47 0 89 -15.5t74 -49t50.5 -87t18.5 -129.5q0 -100 -22.5 -215.5t-77 -214t-145.5 -163t-230 -64.5q-16 0 -34 1t-34 3l53 189 q12 -2 22.5 -2h26.5q63 0 109.5 39.5t74 100t41 131.5t13.5 132q0 86 -24.5 120t-77.5 34q-10 0 -17.5 -1t-15.5 -3l-98 -406h-197l129 539q10 43 19.5 84t9.5 75q0 43 -20.5 70t-74.5 27q-29 0 -73 -17l-189 -778h-196z" />
<glyph unicode="&#x4a8;" d="M111 410q0 147 43 303.5t130 286.5t219 213t308 83q109 0 168 -13t108 -34l-86 -198q-41 16 -84 21t-102 5q-127 0 -217 -63.5t-148.5 -161.5t-86 -218t-27.5 -233q0 -61 18.5 -122.5t65.5 -81.5q0 59 10 136t32.5 156.5t57.5 155.5t83 135.5t110.5 96t142.5 36.5 q121 0 181.5 -74.5t60.5 -197.5q0 -104 -28 -205.5t-84 -188.5t-140 -151.5t-197 -93.5q23 -59 87.5 -98t162.5 -54l-59 -186q-78 0 -145.5 25.5t-121 70.5t-91.5 105.5t-54 130.5q-156 18 -236.5 130t-80.5 284zM625 186q63 20 111 67.5t80 109t47.5 130t15.5 134.5 q0 37 -13.5 60.5t-44.5 23.5q-47 0 -83 -55.5t-61.5 -136.5t-38.5 -172t-13 -161z" />
<glyph unicode="&#x4a9;" d="M125 350q0 123 39 237.5t114.5 204t188.5 142.5t260 53q72 0 124 -7t99 -26l-86 -196q-29 12 -62.5 16t-86.5 4q-94 0 -163 -35.5t-114 -94t-66.5 -135.5t-21.5 -159q0 -27 2 -53.5t11.5 -50t26 -43t46.5 -31.5q8 143 44 236.5t87 147.5t113.5 74.5t128.5 20.5 q92 0 159.5 -58t67.5 -171q0 -78 -23.5 -149.5t-69.5 -128t-115.5 -96.5t-161.5 -56q12 -47 77.5 -72.5t153.5 -40.5l-61 -168q-160 16 -257.5 89t-134.5 188q-156 23 -237.5 117t-81.5 241zM635 160q37 2 75 20.5t66.5 50t47 74.5t18.5 96q0 29 -13.5 54.5t-50.5 25.5 q-41 0 -67.5 -36.5t-44 -87t-24.5 -105.5t-7 -92z" />
<glyph unicode="&#x4aa;" d="M180 420q0 154 42 310.5t126 282.5t212 204.5t300 78.5q66 0 117 -12t90 -27.5t63.5 -33t34.5 -25.5l-94 -194q-41 31 -96 52t-141 21q-100 0 -175 -59.5t-125.5 -151.5t-75 -203.5t-24.5 -218.5q0 -55 11.5 -100t37 -79t67.5 -52t103 -18q94 0 157.5 22.5t104.5 46.5 l29 -203q-47 -29 -128 -55t-185 -31l-17 -26q45 -23 63.5 -53.5t18.5 -67.5q0 -84 -70.5 -130t-181.5 -46q-98 0 -176 41l54 119q23 -12 52 -19.5t58 -7.5q47 0 62.5 18.5t15.5 32.5q0 23 -11.5 38t-41.5 26l-37 12l49 74q-147 35 -218 148.5t-71 285.5z" />
<glyph unicode="&#x4ab;" d="M158 373q0 133 47 245.5t132 193.5t201.5 127t258.5 46q55 0 97 -4t77 -11t62.5 -16.5t53.5 -21.5l-90 -201q-33 14 -84 25.5t-116 11.5q-84 0 -154 -25.5t-122 -75t-80.5 -121t-28.5 -163.5q0 -41 10 -75t37.5 -58.5t76 -38.5t121.5 -14q80 0 148.5 15t103.5 32l25 -201 q-23 -12 -47.5 -22.5t-57 -18.5t-74.5 -14t-100 -8l-18 -31q45 -23 63.5 -53.5t18.5 -67.5q0 -84 -70.5 -130t-181.5 -46q-98 0 -176 41l53 119q23 -12 52.5 -19.5t58.5 -7.5q47 0 62 18.5t15 32.5q0 23 -11 38t-42 26l-37 12q14 23 25.5 40t24.5 34q-94 12 -158 47 t-102.5 87t-56 116.5t-17.5 136.5z" />
<glyph unicode="&#x4ac;" d="M264 1059l49 209h922l-49 -209h-336l-205 -850h123l-131 -547h-236l84 338h-141l254 1059h-334z" />
<glyph unicode="&#x4ad;" d="M43 0l221 920q76 27 136.5 40t119.5 13q53 0 98.5 -16.5t73.5 -55.5q47 37 101.5 54.5t97.5 17.5q98 0 138 -59.5t40 -141.5q0 -55 -16 -115l-109 -454h74l-115 -467h-196l65 264h-78l162 676q4 12 6 26.5t2 30.5q0 23 -10 40.5t-39 17.5q-20 0 -38.5 -10.5t-35.5 -24.5 q0 -49 -14 -99l-70 -290h-192l74 305q2 12 4 28.5t2 32.5q0 20 -9.5 37.5t-41.5 17.5q-33 0 -64 -10l-186 -778h-201z" />
<glyph unicode="&#x4ae;" d="M291 1268h248q12 -147 39.5 -296t58.5 -276q33 47 80 118t96 149.5t97 158.5t85 146h271q-63 -104 -126 -202.5t-128.5 -195t-138 -191.5t-154.5 -196l-117 -483h-252l115 481q-63 199 -104.5 388.5t-69.5 398.5z" />
<glyph unicode="&#x4af;" d="M217 963h262q2 -74 6 -162t11.5 -177t16.5 -177.5t19 -161.5q43 61 92.5 146t95.5 178t85 185.5t61 168.5h271q-47 -127 -111.5 -258.5t-137.5 -253t-146.5 -228t-139.5 -184.5l-92 -377h-252l92 387q-47 182 -83 407.5t-50 506.5z" />
<glyph unicode="&#x4b0;" d="M178 338l39 168h244q-61 195 -102.5 376t-67.5 386h248q12 -147 39.5 -296t58.5 -276q33 47 80 118t96 149.5t97 158.5t85 146h271q-61 -102 -123 -197.5t-126.5 -189t-134 -185.5t-151.5 -190h252l-39 -168h-262l-80 -338h-252l80 338h-252z" />
<glyph unicode="&#x4b1;" d="M111 0l39 168h180q-39 166 -71 359.5t-42 435.5h262q2 -74 6 -162t11.5 -177t16.5 -177.5t19 -161.5q43 61 92.5 146t95.5 178t85 185.5t61 168.5h271q-41 -109 -92.5 -216.5t-109.5 -209t-119.5 -195.5t-121.5 -174h168l-39 -168h-231l-82 -338h-252l80 338h-227z" />
<glyph unicode="&#x4b2;" d="M57 0l439 618l-168 515h229l92 -347q61 78 127 169.5t123 177.5h238q-98 -141 -200.5 -270.5t-207.5 -258.5q39 -104 70.5 -211.5t54.5 -206.5h111l-117 -487h-209l72 301h-45q-12 94 -36 204.5t-55 213.5l-260 -418h-258z" />
<glyph unicode="&#x4b3;" d="M20 0l400 489l-197 474h264l105 -308q63 74 121.5 153t109.5 155h267q-78 -111 -171 -229t-210 -247q39 -78 73.5 -147.5t63.5 -136.5h137l-115 -467h-227l68 264h-43q-31 86 -67 167t-69 144l-233 -311h-277z" />
<glyph unicode="&#x4b4;" d="M145 0l256 1065h-170l52 203h555l-50 -203h-163l-211 -862h295l256 1065h223l-256 -1065h86l-131 -541h-209l82 338h-615z" />
<glyph unicode="&#x4b5;" d="M164 764l49 199h520l-47 -199h-162l-65 -277q-6 -33 -16.5 -81t-10.5 -95q0 -53 21.5 -93t85.5 -40q51 0 91 23.5t70 58.5q4 37 7.5 60.5t9.5 46.5l143 596h211l-135 -564q-8 -35 -14.5 -70.5t-6.5 -68.5q0 -45 15.5 -79t60.5 -44l-96 -401h-193l72 293q-8 6 -21.5 27.5 t-17.5 37.5q-45 -53 -120.5 -85t-145.5 -32q-76 0 -125 21.5t-78.5 59.5t-41 87.5t-11.5 104.5q0 59 9 118.5t24 118.5l65 277h-147z" />
<glyph unicode="&#x4b6;" d="M225 739q0 68 19 142l92 387h254l-90 -373q-18 -74 -19 -127q0 -61 28 -96t105 -35q33 0 68 3t70 13l147 615h254l-256 -1059h86l-131 -547h-234l82 338h-104l106 444q-31 -8 -73.5 -14t-89.5 -6q-88 0 -147.5 22.5t-96.5 64.5t-53.5 99.5t-16.5 128.5z" />
<glyph unicode="&#x4b7;" d="M211 557q0 29 4 57.5t10 59.5l70 289h250l-70 -299q-4 -12 -5 -30t-1 -28q0 -59 33 -75.5t84 -16.5q23 0 58.5 2t62.5 6l104 441h252l-182 -760h86l-113 -467h-227l65 264h-110l75 315q-39 -6 -79.5 -10t-83.5 -4q-135 0 -209 70.5t-74 185.5z" />
<glyph unicode="&#x4b8;" d="M219 727q0 35 5 74t16 80l94 387h252l-92 -381q-18 -74 -19 -123q0 -53 21.5 -83t62.5 -42l55 225h142l-58 -233q27 2 55.5 5t55.5 7l149 625h252l-305 -1268h-252l107 438q-29 -4 -54.5 -6t-54.5 -6l-57 -229h-141l57 229q-135 8 -213 83t-78 218z" />
<glyph unicode="&#x4b9;" d="M193 555q0 45 12 94l76 314h251l-75 -312q-25 -102 67 -127l39 160h142l-41 -164h22t29.5 1t30 2t20.5 3l104 437h254l-233 -963h-252l76 315q-14 -2 -46 -4t-55 -2l-39 -157h-139l35 153q-139 6 -208.5 72.5t-69.5 177.5z" />
<glyph unicode="&#x4ba;" d="M70 0l303 1268h252l-103 -439q29 10 74 15.5t92 5.5q92 0 154.5 -22.5t101.5 -63.5t56.5 -99.5t17.5 -127.5q0 -35 -5 -71t-14 -71l-96 -395h-252l92 381q16 76 17 125q0 63 -29 98t-113 35q-70 0 -147 -16l-149 -623h-252z" />
<glyph unicode="&#x4bb;" d="M90 0l330 1378l262 43l-111 -463q35 10 72 17.5t72 7.5q152 0 227.5 -72.5t75.5 -205.5q0 -35 -5 -76t-16 -86l-131 -543h-252l123 510q6 33 14.5 67.5t8.5 69.5q0 47 -24.5 83t-94.5 36q-27 0 -58.5 -5t-60.5 -18l-180 -743h-252z" />
<glyph unicode="&#x4bc;" d="M166 799q0 53 13.5 101t41.5 99l166 -24q-16 -31 -25.5 -59.5t-9.5 -63.5q0 -29 11.5 -55.5t60.5 -32.5q39 143 87 244.5t105.5 166t124 93t144.5 28.5q76 0 126 -25.5t80.5 -70.5t43 -103.5t12.5 -121.5q0 -111 -20.5 -222.5t-41.5 -189.5h-483q-16 -61 -20 -112.5 t-4 -92.5q0 -96 35.5 -140t113.5 -44q59 0 115.5 22.5t85.5 45.5l28 -179q-31 -29 -103.5 -59.5t-172.5 -30.5q-166 0 -247 97.5t-81 275.5q0 53 6.5 112.5t18.5 119.5q-98 16 -154.5 68t-56.5 153zM649 752h256q8 35 17.5 93t9.5 113q0 57 -17.5 97.5t-58.5 40.5 q-27 0 -54.5 -17.5t-54 -57.5t-51 -106.5t-47.5 -162.5z" />
<glyph unicode="&#x4bd;" d="M111 604q0 35 9 80t25 82l172 -23q-10 -27 -19 -60.5t-9 -64.5q0 -33 18.5 -56t52.5 -27q25 92 68 174t104.5 143t141.5 98t178 37q121 0 185.5 -69.5t64.5 -194.5q0 -102 -48 -173t-126 -117t-176.5 -66.5t-196.5 -20.5q-2 -82 36 -127t138 -45q61 0 119.5 18.5 t93.5 38.5l25 -178q-51 -29 -128 -52.5t-163 -23.5q-100 0 -167 30t-107 81t-55 121t-13 149q-117 29 -170 84.5t-53 161.5zM571 508q92 2 154.5 21.5t100.5 46t54.5 59.5t16.5 63q0 41 -20.5 68t-67.5 27q-39 0 -77 -21.5t-69.5 -59.5t-55 -90.5t-36.5 -113.5z" />
<glyph unicode="&#x4be;" d="M166 799q0 53 13.5 101t41.5 99l166 -24q-16 -31 -25.5 -59.5t-9.5 -63.5q0 -29 11.5 -55.5t60.5 -32.5q39 143 87 244.5t105.5 166t124 93t144.5 28.5q76 0 126 -25.5t80.5 -70.5t43 -103.5t12.5 -121.5q0 -111 -20.5 -222.5t-41.5 -189.5h-483q-16 -61 -20 -112.5 t-4 -92.5q0 -96 35.5 -140t113.5 -44q59 0 115.5 22.5t85.5 45.5l28 -179q-29 -23 -85 -50t-136 -38l-57 -239h-197l60 260q-94 35 -141.5 125t-47.5 225q0 53 6.5 112.5t18.5 119.5q-98 16 -154.5 68t-56.5 153zM649 752h256q8 35 17.5 93t9.5 113q0 57 -17.5 97.5 t-58.5 40.5q-27 0 -54.5 -17.5t-54 -57.5t-51 -106.5t-47.5 -162.5z" />
<glyph unicode="&#x4bf;" d="M111 604q0 35 9 80t25 82l172 -23q-10 -27 -19 -60.5t-9 -64.5q0 -33 18.5 -56t52.5 -27q25 92 68 174t104.5 143t141.5 98t178 37q121 0 185.5 -69.5t64.5 -194.5q0 -102 -48 -173t-126 -117t-176.5 -66.5t-196.5 -20.5q-2 -82 36 -127t138 -45q61 0 119.5 18.5 t93.5 38.5l25 -178q-43 -25 -107.5 -45t-136.5 -28l-59 -244h-211l67 268q-111 41 -150.5 135t-35.5 219q-117 29 -170 84.5t-53 161.5zM571 508q92 2 154.5 21.5t100.5 46t54.5 59.5t16.5 63q0 41 -20.5 68t-67.5 27q-39 0 -77 -21.5t-69.5 -59.5t-55 -90.5t-36.5 -113.5z " />
<glyph unicode="&#x4c0;" d="M72 0l49 209h278l205 850h-278l49 209h805l-50 -209h-274l-205 -850h275l-49 -209h-805z" />
<glyph unicode="&#x4c1;" d="M-23 0q43 98 94.5 194.5t106.5 185.5t113.5 167t114.5 141q-43 154 -70 298t-41 282h205q4 -156 20.5 -282t40.5 -228l123 510h197l-125 -518q88 117 165.5 239.5t151.5 278.5h211q-84 -150 -186.5 -308.5t-223.5 -306.5q25 -53 45.5 -125.5t35 -158.5t23.5 -180.5 t13 -188.5h-211q0 86 -4 172t-11 166t-17.5 149.5t-24.5 122.5l-148 -610h-196l149 618q-41 -57 -87 -128.5t-92 -151.5t-88 -166t-75 -172h-209zM538 1641l193 47q2 -72 32.5 -99.5t75.5 -27.5q49 0 86 26.5t70 98.5l172 -60q-43 -129 -134 -188t-224 -59 q-113 0 -189.5 67.5t-81.5 194.5z" />
<glyph unicode="&#x4c2;" d="M-16 2l34 166q14 -8 48 -8q45 0 80.5 48t61 123t40 164t14.5 171q0 59 -15.5 97t-49.5 38q-10 0 -18.5 -1t-16.5 -3l16 170q25 10 43.5 12t36.5 2q55 0 90 -29.5t54.5 -76t25.5 -101.5t6 -108q0 -29 -2 -54.5t-6 -48.5h96l94 400h164l-94 -400h92q20 78 45 154t60 134 t83.5 94t116.5 36q25 0 49.5 -3t47.5 -13l-39 -172q-23 6 -47 6q-41 0 -76 -47t-59.5 -120t-38 -160t-13.5 -165q0 -66 12.5 -107.5t43.5 -41.5h23t24 4l-19 -168q-16 -6 -33.5 -10t-42.5 -4q-61 0 -97 26.5t-54.5 68.5t-23.5 93t-5 102q0 41 3 74t7 68h-92l-98 -412h-164 l96 412h-90q-20 -82 -43.5 -159t-58.5 -137.5t-87 -97t-128 -36.5q-25 0 -44.5 3t-51.5 17zM462 1356l193 47q2 -72 32.5 -99.5t75.5 -27.5q49 0 86 26.5t70 98.5l172 -60q-43 -129 -134 -188t-224 -59q-113 0 -189.5 67.5t-81.5 194.5z" />
<glyph unicode="&#x4c3;" d="M63 0l304 1268h254l-117 -488q129 119 260 245t240 243h286q-39 -43 -102.5 -107.5t-141 -138.5t-164.5 -152.5t-175 -152.5q76 -4 135 -36t99 -83t61.5 -117.5t21.5 -140.5q0 -150 -46 -274.5t-130 -216t-202 -141.5t-261 -50q-25 0 -50.5 2t-51.5 6l59 207 q14 -2 27.5 -2h25.5q88 0 159 35t121 93t76.5 137t26.5 165q0 94 -53 160.5t-172 66.5q-27 0 -54.5 -2t-58.5 -6l-125 -520h-252z" />
<glyph unicode="&#x4c4;" d="M92 0l227 963h254l-81 -345q49 39 99 84.5t99 90.5t94 88t82 82h305q-43 -41 -98 -92.5t-116.5 -103.5t-126 -103.5t-121.5 -94.5q55 -10 103 -30.5t84 -57.5t57.5 -90t21.5 -129q0 -127 -38 -236.5t-111.5 -191.5t-181 -129t-247.5 -47q-25 0 -51.5 2t-54.5 6l59 207 q14 -2 27.5 -3t30.5 -1q68 0 127 25.5t102 70.5t67.5 105.5t24.5 130.5q0 55 -19.5 92t-52 58.5t-74.5 30.5t-87 9q-16 0 -30.5 -1t-29.5 -3l-92 -387h-252z" />
<glyph unicode="&#x4c5;" d="M16 190q106 20 180 97.5t127.5 194t92.5 263t76 306.5l51 217h608l-246 -1026h105q-14 -88 -41 -165t-69 -147.5t-102.5 -135t-142.5 -128.5l-118 101q41 39 95 97t87 136h-119l254 1059h-139l-66 -258t-71.5 -247t-87 -220.5t-113 -179t-148.5 -123.5t-192 -56z" />
<glyph unicode="&#x4c6;" d="M25 190q43 8 73.5 21.5t52 31t38 37t32.5 42.5q35 49 63.5 113.5t52 136t42 144t35.5 136.5l26 111h656l-174 -721h104q-14 -84 -33.5 -147.5t-52.5 -121t-86 -118t-135 -136.5l-127 107q41 41 78 81t65 93h-121l181 754h-179q-37 -133 -77.5 -268.5t-105 -246t-159 -184 t-237.5 -80.5z" />
<glyph unicode="&#x4c7;" d="M53 0l305 1268h252l-121 -500h338l121 500h252l-297 -1229q-23 -94 -50.5 -166t-71.5 -119t-110.5 -71.5t-166.5 -24.5q-43 0 -92.5 10t-77.5 25l69 201q25 -8 45.5 -12.5t55.5 -4.5q70 0 100.5 48t46.5 114l127 520h-338l-135 -559h-252z" />
<glyph unicode="&#x4c8;" d="M82 0l231 963h252l-90 -373h277l90 373h252l-222 -924q-23 -94 -48 -166t-66 -119t-102.5 -71.5t-157.5 -24.5q-39 0 -83 10t-75 25l72 201q23 -8 39 -12.5t47 -4.5t50 13.5t33.5 35t22.5 51t17 62.5l79 342h-276l-90 -381h-252z" />
<glyph unicode="&#x4c9;" d="M53 0l305 1268h252l-121 -500h287l121 500h252l-250 -1026h105q-14 -88 -40 -165t-68 -147.5t-103.5 -135t-143.5 -128.5l-119 101q43 39 97.5 97t85.5 136h-123l137 559h-287l-135 -559h-252z" />
<glyph unicode="&#x4ca;" d="M82 0l231 963h252l-90 -373h277l90 373h252l-174 -721h104q-14 -84 -33.5 -147.5t-52.5 -121t-86 -118t-135 -136.5l-127 107q41 41 78 81t65 93h-121l88 381h-276l-90 -381h-252z" />
<glyph unicode="&#x4cb;" d="M233 739q0 35 5.5 70t13.5 72l94 387h252l-90 -373q-8 -37 -13.5 -67.5t-5.5 -59.5q0 -61 29 -96t115 -35q33 0 71.5 3t73.5 13l150 615h252l-303 -1268h-117l-82 -338h-234l131 547h99l55 235q-29 -8 -74 -14t-92 -6q-92 0 -154.5 22.5t-101.5 64.5t-56.5 99.5 t-17.5 128.5z" />
<glyph unicode="&#x4cc;" d="M180 565q0 49 17 119l67 279h252l-70 -293q-6 -29 -6 -49q0 -33 13.5 -53.5t35 -33t50 -16.5t61.5 -4t62.5 2t52.5 6l104 441h254l-231 -963h-127l-62 -264h-227l115 467h96l27 112q-90 -12 -168 -12q-68 0 -125.5 14.5t-99.5 46t-66.5 82t-24.5 119.5z" />
<glyph unicode="&#x4cd;" d="M12 0q43 156 89 324t93.5 334.5t93.5 322.5t91 287h217q4 -43 5 -114t1 -151.5v-166.5t4 -160l305 592h232q-33 -254 -80 -508t-105 -518h46q-14 -88 -40 -165t-68 -147.5t-103.5 -135t-143.5 -128.5l-119 101q43 39 97.5 97t85.5 136h-37l252 995l-283 -546h-176 q-6 135 2 274t0 262l-227 -985h-232z" />
<glyph unicode="&#x4ce;" d="M12 0q37 137 70 254t66.5 230.5t69.5 229t81 249.5h203q6 -43 12 -105.5t13.5 -132.5t14.5 -141.5t13 -134.5q27 53 63.5 123.5t75.5 142t75 138.5t62 110h218q-23 -193 -49.5 -366t-61.5 -355h104q-14 -84 -33.5 -147.5t-52 -121t-86 -118t-135.5 -136.5l-127 107 q41 41 78 81t66 93h-90l167 680l-245 -481h-168l-37 481l-137 -680h-230z" />
<glyph unicode="&#x4cf;" d="M72 0l49 209h278l205 850h-278l49 209h805l-50 -209h-274l-205 -850h275l-49 -209h-805z" />
<glyph unicode="&#x4d0;" d="M-12 0q174 381 335.5 699.5t315.5 568.5h268q29 -242 46.5 -511.5t21.5 -574.5v-182h-254l8 295h-360q-31 -70 -64 -143.5t-61 -151.5h-256zM463 498h270q2 104 1 182t-3 138.5t-5 110.5t-5 99q-27 -51 -52.5 -100t-55 -109.5t-66.5 -138.5t-84 -182zM526 1641l193 47 q2 -72 32.5 -99.5t75.5 -27.5q49 0 86 26.5t70 98.5l172 -60q-43 -129 -134 -188t-224 -59q-113 0 -189.5 67.5t-81.5 194.5z" />
<glyph unicode="&#x4d1;" d="M131 352q0 139 47 256t129 200t191.5 129t232.5 46q84 0 170 -16.5t174 -51.5l-127 -522q-8 -37 -12 -72.5t-4 -72.5q0 -59 11 -115.5t30 -112.5l-221 -36q-4 8 -10.5 20t-12.5 26.5t-10 26t-6 17.5q-41 -31 -110.5 -64t-180.5 -33q-135 2 -213 97.5t-78 277.5zM381 373 q0 -53 9 -88t26.5 -55.5t42 -28.5t55.5 -8q57 0 96 25.5t68 60.5q4 29 8 55t12 61l88 365q-23 6 -47 8t-47 2q-72 0 -129 -34t-98 -89t-62.5 -126.5t-21.5 -147.5zM518 1356l193 47q2 -72 32.5 -99.5t75.5 -27.5q49 0 86 26.5t70 98.5l172 -60q-43 -129 -134 -188t-224 -59 q-113 0 -189.5 67.5t-81.5 194.5z" />
<glyph unicode="&#x4d2;" d="M-12 0q174 381 335.5 699.5t315.5 568.5h268q29 -242 46.5 -511.5t21.5 -574.5v-182h-254l8 295h-360q-31 -70 -64 -143.5t-61 -151.5h-256zM463 498h270q2 104 1 182t-3 138.5t-5 110.5t-5 99q-27 -51 -52.5 -100t-55 -109.5t-66.5 -138.5t-84 -182zM471 1508 q0 35 13.5 63.5t34 49t47 31.5t52.5 11q51 0 88 -33.5t37 -89.5q0 -35 -14 -62.5t-35.5 -48t-48 -31.5t-51.5 -11q-53 0 -88 32.5t-35 88.5zM876 1508q0 70 47.5 112.5t102.5 42.5q51 0 87 -33.5t36 -89.5q0 -35 -14.5 -62.5t-36 -48t-48 -31.5t-51.5 -11q-53 0 -88 32.5 t-35 88.5z" />
<glyph unicode="&#x4d3;" d="M131 352q0 139 47 256t129 200t191.5 129t232.5 46q84 0 170 -16.5t174 -51.5l-127 -522q-8 -37 -12 -72.5t-4 -72.5q0 -59 11 -115.5t30 -112.5l-221 -36q-4 8 -10.5 20t-12.5 26.5t-10 26t-6 17.5q-41 -31 -110.5 -64t-180.5 -33q-135 2 -213 97.5t-78 277.5zM381 373 q0 -53 9 -88t26.5 -55.5t42 -28.5t55.5 -8q57 0 96 25.5t68 60.5q4 29 8 55t12 61l88 365q-23 6 -47 8t-47 2q-72 0 -129 -34t-98 -89t-62.5 -126.5t-21.5 -147.5zM481 1223q0 35 13.5 63.5t34 49t47 31.5t52.5 11q51 0 88 -33.5t37 -89.5q0 -35 -14 -62.5t-35.5 -48 t-48 -31.5t-51.5 -11q-53 0 -88 32.5t-35 88.5zM886 1223q0 70 47.5 112.5t102.5 42.5q51 0 87 -33.5t36 -89.5q0 -35 -14.5 -62.5t-36 -48t-48 -31.5t-51.5 -11q-53 0 -88 32.5t-35 88.5z" />
<glyph unicode="&#x4d4;" d="M-27 0q104 217 187.5 385t160 312.5t155.5 280.5t177 290h586l-49 -209h-229l-70 -285h182l-49 -209h-182l-86 -356h258l-49 -209h-480l70 295h-203l-127 -295h-252zM444 498h160l144 600q-78 -137 -152 -282.5t-152 -317.5z" />
<glyph unicode="&#x4d5;" d="M61 190q0 102 36 179t95.5 129.5t139.5 81t170 36.5q2 8 2 15.5v13.5q0 74 -32 115t-112 41q-35 0 -71.5 -14.5t-71.5 -38.5l-24 180q43 29 97 44t111 15q92 0 160 -47t90 -145q49 96 119 144t148 48q37 0 72.5 -11t63 -37t44 -67t16.5 -100q0 -102 -35 -179t-95 -129 t-140 -81t-168 -37q-2 -10 -2 -16v-15q0 -72 30.5 -112.5t110.5 -40.5q74 0 143 51l25 -178q-43 -29 -97.5 -45.5t-109.5 -16.5q-94 0 -161.5 48.5t-90.5 146.5q-49 -96 -118.5 -145.5t-147.5 -49.5q-37 0 -72.5 11.5t-63.5 37t-44.5 66.5t-16.5 102zM240 227q0 -29 12 -49 t49 -20q20 0 46 16t51.5 51t49 90.5t39.5 135.5q-53 0 -99 -17.5t-79 -48.5t-51 -72t-18 -86zM688 512q53 0 99.5 17.5t79 47t51 70.5t18.5 88q0 29 -12.5 49.5t-49.5 20.5q-20 0 -45.5 -16.5t-51 -51.5t-49 -90t-40.5 -135z" />
<glyph unicode="&#x4d6;" d="M109 0l303 1268h751l-49 -209h-500l-69 -285h434l-49 -209h-434l-86 -356h544l-49 -209h-796zM555 1641l193 47q2 -72 32.5 -99.5t75.5 -27.5q49 0 86 26.5t70 98.5l172 -60q-43 -129 -134 -188t-224 -59q-113 0 -189.5 67.5t-81.5 194.5z" />
<glyph unicode="&#x4d7;" d="M154 375q0 119 39.5 230.5t116.5 195.5t186.5 135t251.5 51q141 0 231 -69.5t90 -194.5q0 -104 -51 -177t-141.5 -118t-212.5 -65.5t-263 -20.5q0 -37 12.5 -66.5t40 -50t73.5 -32t116 -11.5q82 0 155.5 17.5t108.5 33.5l17 -190q-49 -25 -137.5 -46.5t-192.5 -21.5 q-117 0 -201 30t-137 83t-77.5 126t-24.5 161zM403 516q129 0 212 16.5t130.5 42t65.5 56.5t18 57q0 47 -34 72.5t-95 25.5q-94 0 -179 -64.5t-118 -205.5zM481 1356l193 47q2 -72 32.5 -99.5t75.5 -27.5q49 0 86 26.5t70 98.5l172 -60q-43 -129 -134 -188t-224 -59 q-113 0 -189.5 67.5t-81.5 194.5z" />
<glyph unicode="&#x4d8;" d="M131 399q0 78 11.5 157t27.5 151h684q6 29 8 62.5t2 61.5q0 70 -19.5 118t-54 76t-83 40t-103.5 12q-76 0 -139.5 -12t-114.5 -35l-22 197q68 37 157.5 53t167.5 16q223 0 336 -116.5t113 -331.5q0 -90 -13.5 -190.5t-43 -198t-76.5 -185.5t-115 -154.5t-157 -106.5 t-201 -40q-102 0 -172 35t-113 93.5t-61.5 136t-18.5 161.5zM354 393q0 -39 7.5 -78t23.5 -69.5t46 -49t77 -18.5q55 0 103 26.5t86 70.5t67 104.5t47 128.5h-449q-4 -23 -6 -52.5t-2 -62.5z" />
<glyph unicode="&#x4d9;" d="M106 244q0 104 52.5 174.5t142.5 115t211 63.5t260 19q-2 35 -14.5 65t-40 52.5t-72.5 35.5t-115 13q-82 0 -151.5 -17t-104.5 -34l-24 187q49 25 137 47t193 22q119 0 201.5 -28.5t136 -81t78 -126t24.5 -161.5q0 -121 -38 -231.5t-112.5 -194.5t-185.5 -135.5 t-258 -51.5q-141 0 -230.5 71t-89.5 196zM344 279q0 -49 34 -74t95 -25q111 0 195 73t104 193q-135 -2 -219 -18t-130 -41t-62.5 -53.5t-16.5 -54.5z" />
<glyph unicode="&#x4da;" d="M131 399q0 78 11.5 157t27.5 151h684q6 29 8 62.5t2 61.5q0 70 -19.5 118t-54 76t-83 40t-103.5 12q-76 0 -139.5 -12t-114.5 -35l-22 197q68 37 157.5 53t167.5 16q223 0 336 -116.5t113 -331.5q0 -90 -13.5 -190.5t-43 -198t-76.5 -185.5t-115 -154.5t-157 -106.5 t-201 -40q-102 0 -172 35t-113 93.5t-61.5 136t-18.5 161.5zM354 393q0 -39 7.5 -78t23.5 -69.5t46 -49t77 -18.5q55 0 103 26.5t86 70.5t67 104.5t47 128.5h-449q-4 -23 -6 -52.5t-2 -62.5zM426 1508q0 35 13.5 63.5t34 49t47 31.5t52.5 11q51 0 88 -33.5t37 -89.5 q0 -35 -14 -62.5t-35.5 -48t-48 -31.5t-51.5 -11q-53 0 -88 32.5t-35 88.5zM831 1508q0 70 47.5 112.5t102.5 42.5q51 0 87 -33.5t36 -89.5q0 -35 -14.5 -62.5t-36 -48t-48 -31.5t-51.5 -11q-53 0 -88 32.5t-35 88.5z" />
<glyph unicode="&#x4db;" d="M106 244q0 104 52.5 174.5t142.5 115t211 63.5t260 19q-2 35 -14.5 65t-40 52.5t-72.5 35.5t-115 13q-82 0 -151.5 -17t-104.5 -34l-24 187q49 25 137 47t193 22q119 0 201.5 -28.5t136 -81t78 -126t24.5 -161.5q0 -121 -38 -231.5t-112.5 -194.5t-185.5 -135.5 t-258 -51.5q-141 0 -230.5 71t-89.5 196zM344 279q0 -49 34 -74t95 -25q111 0 195 73t104 193q-135 -2 -219 -18t-130 -41t-62.5 -53.5t-16.5 -54.5zM381 1223q0 35 13.5 63.5t34 49t47 31.5t52.5 11q51 0 88 -33.5t37 -89.5q0 -35 -14 -62.5t-35.5 -48t-48 -31.5t-51.5 -11 q-53 0 -88 32.5t-35 88.5zM786 1223q0 70 47.5 112.5t102.5 42.5q51 0 87 -33.5t36 -89.5q0 -35 -14.5 -62.5t-36 -48t-48 -31.5t-51.5 -11q-53 0 -88 32.5t-35 88.5z" />
<glyph unicode="&#x4dc;" d="M-23 0q43 98 94.5 194.5t106.5 185.5t113.5 167t114.5 141q-43 154 -70 298t-41 282h205q4 -156 20.5 -282t40.5 -228l123 510h197l-125 -518q88 117 165.5 239.5t151.5 278.5h211q-84 -150 -186.5 -308.5t-223.5 -306.5q25 -53 45.5 -125.5t35 -158.5t23.5 -180.5 t13 -188.5h-211q0 86 -4 172t-11 166t-17.5 149.5t-24.5 122.5l-148 -610h-196l149 618q-41 -57 -87 -128.5t-92 -151.5t-88 -166t-75 -172h-209zM500 1508q0 35 13.5 63.5t34 49t47 31.5t52.5 11q51 0 88 -33.5t37 -89.5q0 -35 -14 -62.5t-35.5 -48t-48 -31.5t-51.5 -11 q-53 0 -88 32.5t-35 88.5zM905 1508q0 70 47.5 112.5t102.5 42.5q51 0 87 -33.5t36 -89.5q0 -35 -14.5 -62.5t-36 -48t-48 -31.5t-51.5 -11q-53 0 -88 32.5t-35 88.5z" />
<glyph unicode="&#x4dd;" d="M-16 2l34 166q14 -8 48 -8q45 0 80.5 48t61 123t40 164t14.5 171q0 59 -15.5 97t-49.5 38q-10 0 -18.5 -1t-16.5 -3l16 170q25 10 43.5 12t36.5 2q55 0 90 -29.5t54.5 -76t25.5 -101.5t6 -108q0 -29 -2 -54.5t-6 -48.5h96l94 400h164l-94 -400h92q20 78 45 154t60 134 t83.5 94t116.5 36q25 0 49.5 -3t47.5 -13l-39 -172q-23 6 -47 6q-41 0 -76 -47t-59.5 -120t-38 -160t-13.5 -165q0 -66 12.5 -107.5t43.5 -41.5h23t24 4l-19 -168q-16 -6 -33.5 -10t-42.5 -4q-61 0 -97 26.5t-54.5 68.5t-23.5 93t-5 102q0 41 3 74t7 68h-92l-98 -412h-164 l96 412h-90q-20 -82 -43.5 -159t-58.5 -137.5t-87 -97t-128 -36.5q-25 0 -44.5 3t-51.5 17zM418 1223q0 35 13.5 63.5t34 49t47 31.5t52.5 11q51 0 88 -33.5t37 -89.5q0 -35 -14 -62.5t-35.5 -48t-48 -31.5t-51.5 -11q-53 0 -88 32.5t-35 88.5zM823 1223q0 70 47.5 112.5 t102.5 42.5q51 0 87 -33.5t36 -89.5q0 -35 -14.5 -62.5t-36 -48t-48 -31.5t-51.5 -11q-53 0 -88 32.5t-35 88.5z" />
<glyph unicode="&#x4de;" d="M18 78l117 201q72 -47 145.5 -66.5t161.5 -19.5q78 0 135.5 17t94.5 45t54 64.5t17 77.5q0 72 -55 114t-172 42h-188l47 207h153q53 0 106.5 10t95.5 34.5t68.5 63.5t26.5 97q0 55 -45 83.5t-121 28.5q-66 0 -140.5 -17.5t-151.5 -58.5l-45 209q86 41 181 62.5t220 21.5 q102 0 170 -24.5t108.5 -64.5t58 -91t17.5 -104q0 -111 -59.5 -200t-204.5 -136q57 -25 92 -57.5t55.5 -68.5t27.5 -72t7 -66q0 -74 -26.5 -151t-92 -140.5t-177 -104.5t-281.5 -41q-127 0 -219.5 27t-180.5 78zM444 1508q0 35 13.5 63.5t34 49t47 31.5t52.5 11 q51 0 88 -33.5t37 -89.5q0 -35 -14 -62.5t-35.5 -48t-48 -31.5t-51.5 -11q-53 0 -88 32.5t-35 88.5zM849 1508q0 70 47.5 112.5t102.5 42.5q51 0 87 -33.5t36 -89.5q0 -35 -14.5 -62.5t-36 -48t-48 -31.5t-51.5 -11q-53 0 -88 32.5t-35 88.5z" />
<glyph unicode="&#x4df;" d="M72 35l90 196q51 -23 119.5 -36t146.5 -13q45 0 93 6.5t87 20.5t63.5 37.5t24.5 58.5q0 27 -15 45.5t-41 28.5t-58.5 14t-67.5 4h-168l43 183h176q98 0 148.5 33.5t50.5 80.5q0 25 -15.5 41.5t-40 26.5t-56 15t-64.5 5q-104 0 -167 -13t-97 -26l-9 189q74 29 167 42 t180 13q94 0 160.5 -19.5t108.5 -52t60.5 -77.5t18.5 -95q0 -59 -41 -131.5t-148 -117.5q68 -25 97.5 -78.5t29.5 -108.5q0 -90 -44 -153.5t-116.5 -103.5t-166 -58.5t-193.5 -18.5q-98 0 -192.5 16.5t-163.5 45.5zM422 1223q0 35 13.5 63.5t34 49t47 31.5t52.5 11 q51 0 88 -33.5t37 -89.5q0 -35 -14 -62.5t-35.5 -48t-48 -31.5t-51.5 -11q-53 0 -88 32.5t-35 88.5zM827 1223q0 70 47.5 112.5t102.5 42.5q51 0 87 -33.5t36 -89.5q0 -35 -14.5 -62.5t-36 -48t-48 -31.5t-51.5 -11q-53 0 -88 32.5t-35 88.5z" />
<glyph unicode="&#x4e0;" d="M59 72l119 196q23 -14 58.5 -29.5t76.5 -27.5t83 -20.5t79 -8.5q113 0 189.5 61.5t76.5 178.5q0 164 -219 164h-80l33 137q37 33 85 77t96.5 90t93.5 90t79 79h-485l49 209h778l-38 -158q-29 -29 -72 -73t-96.5 -95t-110.5 -105.5t-113 -103.5q57 -12 105.5 -32.5 t82.5 -55.5t52 -87t18 -126q0 -115 -42 -202t-114.5 -145t-171 -88t-210.5 -30q-131 0 -233.5 32t-168.5 73z" />
<glyph unicode="&#x4e1;" d="M8 -264l76 198q53 -27 131 -42t152 -15q111 0 187.5 61.5t76.5 178.5q0 86 -63.5 125t-174.5 39h-59l33 137q37 33 84 77t95 90t93 90t80 79h-469l51 209h760l-39 -158q-29 -29 -72 -73t-96 -96t-110.5 -106.5t-112.5 -101.5q117 -23 187.5 -105.5t70.5 -195.5 q0 -115 -42 -202t-115 -145.5t-171 -88t-211 -29.5q-47 0 -96 6t-95 15.5t-85 22.5t-66 30z" />
<glyph unicode="&#x4e2;" d="M53 0l303 1268h226l-203 -842q53 86 124.5 193.5t151.5 220t162 224.5t158 204h223l-303 -1268h-225l211 877q-170 -233 -310.5 -444.5t-277.5 -432.5h-240zM528 1432l45 178h588l-43 -178h-590z" />
<glyph unicode="&#x4e3;" d="M156 268q0 94 28 219l115 476h252l-109 -459q-16 -61 -24 -111.5t-8 -89.5q0 -106 102 -106q57 0 91 23.5t65 58.5q4 29 7 55t13 61l135 568h252l-137 -570q-8 -37 -13 -72.5t-5 -72.5q0 -59 12 -115.5t31 -112.5l-222 -36l-10 20t-12 26.5t-10 26t-7 17.5 q-41 -31 -106 -64t-143 -33q-166 0 -231.5 78t-65.5 213zM422 1147l45 178h588l-43 -178h-590z" />
<glyph unicode="&#x4e4;" d="M53 0l303 1268h226l-203 -842q53 86 124.5 193.5t151.5 220t162 224.5t158 204h223l-303 -1268h-225l211 877q-170 -233 -310.5 -444.5t-277.5 -432.5h-240zM477 1508q0 35 13.5 63.5t34 49t47 31.5t52.5 11q51 0 88 -33.5t37 -89.5q0 -35 -14 -62.5t-35.5 -48t-48 -31.5 t-51.5 -11q-53 0 -88 32.5t-35 88.5zM882 1508q0 70 47.5 112.5t102.5 42.5q51 0 87 -33.5t36 -89.5q0 -35 -14.5 -62.5t-36 -48t-48 -31.5t-51.5 -11q-53 0 -88 32.5t-35 88.5z" />
<glyph unicode="&#x4e5;" d="M156 268q0 94 28 219l115 476h252l-109 -459q-16 -61 -24 -111.5t-8 -89.5q0 -106 102 -106q57 0 91 23.5t65 58.5q4 29 7 55t13 61l135 568h252l-137 -570q-8 -37 -13 -72.5t-5 -72.5q0 -59 12 -115.5t31 -112.5l-222 -36l-10 20t-12 26.5t-10 26t-7 17.5 q-41 -31 -106 -64t-143 -33q-166 0 -231.5 78t-65.5 213zM391 1223q0 35 13.5 63.5t34 49t47 31.5t52.5 11q51 0 88 -33.5t37 -89.5q0 -35 -14 -62.5t-35.5 -48t-48 -31.5t-51.5 -11q-53 0 -88 32.5t-35 88.5zM796 1223q0 70 47.5 112.5t102.5 42.5q51 0 87 -33.5t36 -89.5 q0 -35 -14.5 -62.5t-36 -48t-48 -31.5t-51.5 -11q-53 0 -88 32.5t-35 88.5z" />
<glyph unicode="&#x4e6;" d="M137 367q0 80 12.5 180t42 203.5t75.5 202t115 175t160 122.5t210 46q166 0 260 -107.5t94 -285.5q0 -80 -12.5 -180t-41 -203.5t-75.5 -202t-114.5 -175t-159 -123t-209.5 -46.5q-168 0 -262.5 107.5t-94.5 286.5zM389 385q0 -80 27.5 -136t105.5 -56q84 0 146.5 71.5 t103.5 177t61.5 225t20.5 218.5q0 80 -27.5 136t-103.5 56q-84 0 -147.5 -71.5t-104.5 -177t-61.5 -226.5t-20.5 -217zM469 1508q0 35 13.5 63.5t34 49t47 31.5t52.5 11q51 0 88 -33.5t37 -89.5q0 -35 -14 -62.5t-35.5 -48t-48 -31.5t-51.5 -11q-53 0 -88 32.5t-35 88.5z M874 1508q0 70 47.5 112.5t102.5 42.5q51 0 87 -33.5t36 -89.5q0 -35 -14.5 -62.5t-36 -48t-48 -31.5t-51.5 -11q-53 0 -88 32.5t-35 88.5z" />
<glyph unicode="&#x4e7;" d="M133 334q0 123 37 239.5t108.5 208.5t178 148.5t245.5 56.5q150 0 241 -91t91 -271q0 -121 -34.5 -238t-105.5 -209t-176.5 -148.5t-244.5 -56.5q-172 0 -256 98.5t-84 262.5zM385 399q0 -96 27.5 -151t111.5 -55q61 0 108.5 36.5t81.5 92t51 120t17 121.5 q0 96 -27.5 151.5t-113.5 55.5q-59 0 -107.5 -37t-81 -92t-50 -119.5t-17.5 -122.5zM395 1223q0 35 13.5 63.5t34 49t47 31.5t52.5 11q51 0 88 -33.5t37 -89.5q0 -35 -14 -62.5t-35.5 -48t-48 -31.5t-51.5 -11q-53 0 -88 32.5t-35 88.5zM800 1223q0 70 47.5 112.5 t102.5 42.5q51 0 87 -33.5t36 -89.5q0 -35 -14.5 -62.5t-36 -48t-48 -31.5t-51.5 -11q-53 0 -88 32.5t-35 88.5z" />
<glyph unicode="&#x4e8;" d="M139 367q0 80 12.5 180t42 203.5t75.5 202t115 175t160 122.5t210 46q166 0 260 -107.5t94 -285.5q0 -80 -12.5 -180t-41 -203.5t-75.5 -202t-114.5 -175t-160 -123t-208.5 -46.5q-168 0 -262.5 107.5t-94.5 286.5zM391 385q0 -41 6 -76t21.5 -60.5t40 -40.5t63.5 -15 q51 0 94 27.5t78 73.5t62.5 108.5t48.5 129.5h-404q-4 -41 -7 -77.5t-3 -69.5zM440 733h406q4 41 7 79t3 73q0 80 -27.5 136t-103.5 56q-51 0 -95 -27.5t-79 -75.5t-62.5 -110.5t-48.5 -130.5z" />
<glyph unicode="&#x4e9;" d="M133 369q0 109 37 219t105.5 199.5t170 144.5t230.5 55q92 0 159.5 -28.5t111.5 -81t65.5 -125t21.5 -160.5q0 -109 -34.5 -219.5t-103.5 -199.5t-171.5 -144.5t-235.5 -55.5q-92 0 -159.5 30t-110.5 82t-64.5 125t-21.5 159zM381 399q0 -96 29.5 -151t113.5 -55 q82 0 142.5 61t89.5 147h-375v-2zM414 565h372q0 94 -29.5 149.5t-115.5 55.5q-39 0 -74 -16.5t-64.5 -45t-52 -65.5t-36.5 -78z" />
<glyph unicode="&#x4ea;" d="M139 367q0 80 12.5 180t42 203.5t75.5 202t115 175t160 122.5t210 46q166 0 260 -107.5t94 -285.5q0 -80 -12.5 -180t-41 -203.5t-75.5 -202t-114.5 -175t-160 -123t-208.5 -46.5q-168 0 -262.5 107.5t-94.5 286.5zM391 385q0 -41 6 -76t21.5 -60.5t40 -40.5t63.5 -15 q51 0 94 27.5t78 73.5t62.5 108.5t48.5 129.5h-404q-4 -41 -7 -77.5t-3 -69.5zM440 733h406q4 41 7 79t3 73q0 80 -27.5 136t-103.5 56q-51 0 -95 -27.5t-79 -75.5t-62.5 -110.5t-48.5 -130.5zM469 1508q0 35 13.5 63.5t34 49t47 31.5t52.5 11q51 0 88 -33.5t37 -89.5 q0 -35 -14 -62.5t-35.5 -48t-48 -31.5t-51.5 -11q-53 0 -88 32.5t-35 88.5zM874 1508q0 70 47.5 112.5t102.5 42.5q51 0 87 -33.5t36 -89.5q0 -35 -14.5 -62.5t-36 -48t-48 -31.5t-51.5 -11q-53 0 -88 32.5t-35 88.5z" />
<glyph unicode="&#x4eb;" d="M133 369q0 109 37 219t105.5 199.5t170 144.5t230.5 55q92 0 159.5 -28.5t111.5 -81t65.5 -125t21.5 -160.5q0 -109 -34.5 -219.5t-103.5 -199.5t-171.5 -144.5t-235.5 -55.5q-92 0 -159.5 30t-110.5 82t-64.5 125t-21.5 159zM381 399q0 -96 29.5 -151t113.5 -55 q82 0 142.5 61t89.5 147h-375v-2zM395 1223q0 35 13.5 63.5t34 49t47 31.5t52.5 11q51 0 88 -33.5t37 -89.5q0 -35 -14 -62.5t-35.5 -48t-48 -31.5t-51.5 -11q-53 0 -88 32.5t-35 88.5zM414 565h372q0 94 -29.5 149.5t-115.5 55.5q-39 0 -74 -16.5t-64.5 -45t-52 -65.5 t-36.5 -78zM800 1223q0 70 47.5 112.5t102.5 42.5q51 0 87 -33.5t36 -89.5q0 -35 -14.5 -62.5t-36 -48t-48 -31.5t-51.5 -11q-53 0 -88 32.5t-35 88.5z" />
<glyph unicode="&#x4ec;" d="M55 74l101 190q41 -29 101 -50t161 -21q78 0 139 27.5t106.5 74.5t75 109.5t43.5 134.5h-393l53 219h373q2 10 2 37q0 59 -11 110t-38 89t-70 59.5t-104 21.5q-92 0 -145.5 -18.5t-96.5 -40.5l-26 201q53 33 136.5 56t194.5 23q96 0 173 -36.5t130.5 -101t82 -152.5 t28.5 -189q0 -162 -38 -313.5t-116.5 -269t-202.5 -189.5t-296 -72q-78 0 -140.5 12.5t-108.5 29t-74.5 32.5t-39.5 27zM463 1508q0 35 13.5 63.5t34 49t47 31.5t52.5 11q51 0 88 -33.5t37 -89.5q0 -35 -14 -62.5t-35.5 -48t-48 -31.5t-51.5 -11q-53 0 -88 32.5t-35 88.5z M868 1508q0 70 47.5 112.5t102.5 42.5q51 0 87 -33.5t36 -89.5q0 -35 -14.5 -62.5t-36 -48t-48 -31.5t-51.5 -11q-53 0 -88 32.5t-35 88.5z" />
<glyph unicode="&#x4ed;" d="M102 39l78 201q33 -14 91.5 -28.5t131.5 -14.5q137 0 218 49t116 145h-393l45 191h371q-4 88 -57.5 137t-180.5 49q-82 0 -133 -15.5t-88 -31.5l-18 203q51 27 121.5 44t175.5 17q119 0 200.5 -31.5t133 -87t75 -129t23.5 -155.5q0 -141 -40 -253t-117 -190t-191.5 -120 t-262.5 -42q-84 0 -167.5 16.5t-131.5 45.5zM410 1223q0 35 13.5 63.5t34 49t47 31.5t52.5 11q51 0 88 -33.5t37 -89.5q0 -35 -14 -62.5t-35.5 -48t-48 -31.5t-51.5 -11q-53 0 -88 32.5t-35 88.5zM815 1223q0 70 47.5 112.5t102.5 42.5q51 0 87 -33.5t36 -89.5 q0 -35 -14.5 -62.5t-36 -48t-48 -31.5t-51.5 -11q-53 0 -88 32.5t-35 88.5z" />
<glyph unicode="&#x4ee;" d="M16 20l88 218q70 -37 160 -37q66 0 121 45t123 155q-84 242 -143.5 467.5t-90.5 399.5h267q12 -74 27.5 -156t31.5 -163t34.5 -155.5t37.5 -134.5q49 88 97 177.5t89 170t74 148.5t51 113h289q-76 -143 -141.5 -262t-126 -223.5t-119 -201t-119.5 -192.5 q-76 -121 -142.5 -200.5t-130 -127t-127 -68t-130.5 -20.5q-61 0 -113.5 12.5t-106.5 34.5zM510 1432l45 178h588l-43 -178h-590z" />
<glyph unicode="&#x4ef;" d="M-88 -301l80 201q33 -14 61.5 -21.5t73.5 -7.5q150 0 248 147q-49 197 -89 427.5t-55 517.5h263q2 -74 7 -162t13 -178.5t19.5 -178.5t25.5 -159q94 143 166 310t131 368h268q-53 -141 -104 -262t-105.5 -230t-114 -208t-126.5 -195q-51 -74 -109.5 -147t-127 -132 t-150.5 -96t-178 -37q-127 0 -197 43zM422 1147l45 178h588l-43 -178h-590z" />
<glyph unicode="&#x4f0;" d="M16 20l88 218q70 -37 160 -37q66 0 121 45t123 155q-84 242 -143.5 467.5t-90.5 399.5h267q12 -74 27.5 -156t31.5 -163t34.5 -155.5t37.5 -134.5q49 88 97 177.5t89 170t74 148.5t51 113h289q-76 -143 -141.5 -262t-126 -223.5t-119 -201t-119.5 -192.5 q-76 -121 -142.5 -200.5t-130 -127t-127 -68t-130.5 -20.5q-61 0 -113.5 12.5t-106.5 34.5zM500 1508q0 35 13.5 63.5t34 49t47 31.5t52.5 11q51 0 88 -33.5t37 -89.5q0 -35 -14 -62.5t-35.5 -48t-48 -31.5t-51.5 -11q-53 0 -88 32.5t-35 88.5zM905 1508q0 70 47.5 112.5 t102.5 42.5q51 0 87 -33.5t36 -89.5q0 -35 -14.5 -62.5t-36 -48t-48 -31.5t-51.5 -11q-53 0 -88 32.5t-35 88.5z" />
<glyph unicode="&#x4f1;" d="M-88 -301l80 201q33 -14 61.5 -21.5t73.5 -7.5q150 0 248 147q-49 197 -89 427.5t-55 517.5h263q2 -74 7 -162t13 -178.5t19.5 -178.5t25.5 -159q94 143 166 310t131 368h268q-53 -141 -104 -262t-105.5 -230t-114 -208t-126.5 -195q-51 -74 -109.5 -147t-127 -132 t-150.5 -96t-178 -37q-127 0 -197 43zM373 1223q0 35 13.5 63.5t34 49t47 31.5t52.5 11q51 0 88 -33.5t37 -89.5q0 -35 -14 -62.5t-35.5 -48t-48 -31.5t-51.5 -11q-53 0 -88 32.5t-35 88.5zM778 1223q0 70 47.5 112.5t102.5 42.5q51 0 87 -33.5t36 -89.5q0 -35 -14.5 -62.5 t-36 -48t-48 -31.5t-51.5 -11q-53 0 -88 32.5t-35 88.5z" />
<glyph unicode="&#x4f2;" d="M16 20l88 218q70 -37 160 -37q66 0 121 45t123 155q-84 242 -143.5 467.5t-90.5 399.5h267q12 -74 27.5 -156t31.5 -163t34.5 -155.5t37.5 -134.5q49 88 97 177.5t89 170t74 148.5t51 113h289q-76 -143 -141.5 -262t-126 -223.5t-119 -201t-119.5 -192.5 q-76 -121 -142.5 -200.5t-130 -127t-127 -68t-130.5 -20.5q-61 0 -113.5 12.5t-106.5 34.5zM516 1450l291 250l121 -162l-315 -209zM926 1450l291 250l121 -162l-316 -209z" />
<glyph unicode="&#x4f3;" d="M-88 -301l80 201q33 -14 61.5 -21.5t73.5 -7.5q150 0 248 147q-49 197 -89 427.5t-55 517.5h263q2 -74 7 -162t13 -178.5t19.5 -178.5t25.5 -159q94 143 166 310t131 368h268q-53 -141 -104 -262t-105.5 -230t-114 -208t-126.5 -195q-51 -74 -109.5 -147t-127 -132 t-150.5 -96t-178 -37q-127 0 -197 43zM426 1165l291 250l121 -162l-315 -209zM836 1165l291 250l121 -162l-316 -209z" />
<glyph unicode="&#x4f4;" d="M233 739q0 35 5.5 70t13.5 72l94 387h252l-90 -373q-8 -37 -13.5 -67.5t-5.5 -59.5q0 -61 29 -96t115 -35q33 0 71.5 3t73.5 13l150 615h252l-303 -1268h-252l104 444q-29 -8 -74 -14t-92 -6q-92 0 -154.5 22.5t-101.5 64.5t-56.5 99.5t-17.5 128.5zM444 1508 q0 35 13.5 63.5t34 49t47 31.5t52.5 11q51 0 88 -33.5t37 -89.5q0 -35 -14 -62.5t-35.5 -48t-48 -31.5t-51.5 -11q-53 0 -88 32.5t-35 88.5zM849 1508q0 70 47.5 112.5t102.5 42.5q51 0 87 -33.5t36 -89.5q0 -35 -14.5 -62.5t-36 -48t-48 -31.5t-51.5 -11q-53 0 -88 32.5 t-35 88.5z" />
<glyph unicode="&#x4f5;" d="M180 565q0 49 17 119l67 279h252l-70 -293q-6 -29 -6 -49q0 -33 13.5 -53.5t35 -33t50 -16.5t61.5 -4t62.5 2t52.5 6l104 441h254l-231 -963h-254l76 315q-90 -12 -168 -12q-68 0 -125.5 14.5t-99.5 46t-66.5 82t-24.5 119.5zM408 1223q0 35 13.5 63.5t34 49t47 31.5 t52.5 11q51 0 88 -33.5t37 -89.5q0 -35 -14 -62.5t-35.5 -48t-48 -31.5t-51.5 -11q-53 0 -88 32.5t-35 88.5zM813 1223q0 70 47.5 112.5t102.5 42.5q51 0 87 -33.5t36 -89.5q0 -35 -14.5 -62.5t-36 -48t-48 -31.5t-51.5 -11q-53 0 -88 32.5t-35 88.5z" />
<glyph unicode="&#x4f6;" d="M29 0l49 209h184l254 1059h713l-49 -209h-461l-205 -850h274l-131 -547h-235l82 338h-475z" />
<glyph unicode="&#x4f7;" d="M145 225q0 82 35 138.5t89.5 95.5t121 62.5t129.5 41.5q49 14 92 27.5t75 31t51.5 38t19.5 49.5q0 35 -31 54t-121 19q-82 0 -148.5 -15t-119.5 -36l-12 199q29 10 71.5 20.5t92 18.5t101.5 13t99 5q160 0 241 -66.5t81 -183.5q0 -92 -35 -150.5t-88 -96t-115.5 -59 t-116.5 -36.5q-127 -35 -192.5 -65.5t-65.5 -79.5q0 -41 39 -55.5t137 -14.5q68 0 145 11.5t191 35.5l-114 -491h-234l62 246q-29 -4 -58.5 -6.5t-62.5 -2.5q-94 0 -162 20.5t-112 56.5t-64.5 81t-20.5 94z" />
<glyph unicode="&#x4f8;" d="M29 18l301 1250h194l-102 -428q10 2 21.5 2h21.5q135 0 204.5 -80t69.5 -215q0 -102 -25.5 -202.5t-79.5 -180.5t-140 -130t-207 -50q-59 0 -127 7t-131 27zM262 174q27 -6 64 -6q55 0 95 35t67.5 87t41 111.5t13.5 106.5q0 72 -32 109.5t-110 37.5q-16 0 -24 -2z M465 1508q0 35 13.5 63.5t34 49t47 31.5t52.5 11q51 0 88 -33.5t37 -89.5q0 -35 -14 -62.5t-35.5 -48t-48 -31.5t-51.5 -11q-53 0 -88 32.5t-35 88.5zM727 0l305 1268h195l-303 -1268h-197zM870 1508q0 70 47.5 112.5t102.5 42.5q51 0 87 -33.5t36 -89.5q0 -35 -14.5 -62.5 t-36 -48t-48 -31.5t-51.5 -11q-53 0 -88 32.5t-35 88.5z" />
<glyph unicode="&#x4f9;" d="M41 18l223 945h195l-78 -328q10 2 23.5 3t23.5 1q135 0 207 -68.5t72 -183.5q0 -98 -32 -173t-87.5 -126t-130 -77.5t-160.5 -26.5q-59 0 -126 7t-130 27zM270 172q27 -6 64 -6q47 0 81 15.5t55.5 41t31.5 59t10 68.5q0 43 -28.5 73t-116.5 30h-31zM410 1223 q0 35 13.5 63.5t34 49t47 31.5t52.5 11q51 0 88 -33.5t37 -89.5q0 -35 -14 -62.5t-35.5 -48t-48 -31.5t-51.5 -11q-53 0 -88 32.5t-35 88.5zM717 0l231 963h193l-230 -963h-194zM815 1223q0 70 47.5 112.5t102.5 42.5q51 0 87 -33.5t36 -89.5q0 -35 -14.5 -62.5t-36 -48 t-48 -31.5t-51.5 -11q-53 0 -88 32.5t-35 88.5z" />
<glyph unicode="&#x2000;" horiz-adv-x="850" />
<glyph unicode="&#x2001;" horiz-adv-x="1700" />
<glyph unicode="&#x2002;" horiz-adv-x="850" />
<glyph unicode="&#x2003;" horiz-adv-x="1700" />
<glyph unicode="&#x2004;" horiz-adv-x="566" />
<glyph unicode="&#x2005;" horiz-adv-x="425" />
<glyph unicode="&#x2006;" horiz-adv-x="283" />
<glyph unicode="&#x2007;" horiz-adv-x="283" />
<glyph unicode="&#x2008;" horiz-adv-x="212" />
<glyph unicode="&#x2009;" horiz-adv-x="340" />
<glyph unicode="&#x200a;" horiz-adv-x="94" />
<glyph unicode="&#x2010;" d="M285 401l59 248h561l-61 -248h-559z" />
<glyph unicode="&#x2011;" d="M285 401l59 248h561l-61 -248h-559z" />
<glyph unicode="&#x2012;" d="M285 401l59 248h561l-61 -248h-559z" />
<glyph unicode="&#x2013;" d="M180 453l47 188h805l-47 -188h-805z" />
<glyph unicode="&#x2014;" d="M70 453l45 188h1024l-45 -188h-1024z" />
<glyph unicode="&#x2018;" d="M535 1051q0 76 28.5 153.5t88 141t149.5 107.5t215 52l16 -162q-43 -2 -87 -11t-82 -26.5t-65.5 -40t-37.5 -53.5q61 -8 98 -48t37 -105q0 -43 -15.5 -81t-43 -65.5t-64.5 -43t-80 -15.5q-80 0 -118.5 56.5t-38.5 140.5z" />
<glyph unicode="&#x2019;" d="M485 1016q43 2 86 11t81 26.5t65.5 40t38.5 53.5q-59 8 -96 48t-37 105q0 88 57 146.5t143 58.5q82 0 121 -56t39 -142q0 -76 -28.5 -153t-88 -140.5t-150.5 -107.5t-214 -52z" />
<glyph unicode="&#x201a;" d="M197 -147q43 2 86 11t80.5 26.5t65.5 40t38 53.5q-61 8 -97 48t-36 105q0 88 57.5 146.5t143.5 58.5q80 0 119.5 -48t39.5 -114q0 -90 -28.5 -174t-88 -151.5t-150.5 -111.5t-214 -52z" />
<glyph unicode="&#x201c;" d="M330 1034q0 68 24.5 134.5t74.5 119.5t128 88t186 43l15 -135q-37 -4 -75 -12t-69.5 -21.5t-55 -34t-32.5 -45.5q53 -6 85 -42.5t32 -92.5q0 -76 -50 -127t-124 -51q-72 0 -105.5 50t-33.5 126zM809 1034q0 68 23.5 134.5t74.5 119.5t128 88t186 43l14 -135 q-37 -4 -74 -12t-68.5 -21.5t-55 -34t-31.5 -45.5q53 -6 83.5 -42.5t30.5 -92.5q0 -76 -50 -127t-124 -51q-72 0 -104.5 50t-32.5 126z" />
<glyph unicode="&#x201d;" d="M272 993q37 2 74 10.5t68.5 21.5t55.5 33.5t32 45.5q-53 8 -85 45t-32 90q0 78 51 129t125 51q72 0 104.5 -51t32.5 -125q0 -68 -23.5 -134.5t-74.5 -119.5t-129 -88t-184 -43zM750 993q37 2 74.5 10.5t69.5 21.5t54.5 33.5t32.5 45.5q-53 8 -86 45t-33 90q0 78 51.5 129 t124.5 51q72 0 106 -51t34 -125q0 -68 -25 -134.5t-75 -119.5t-129 -88t-185 -43z" />
<glyph unicode="&#x201e;" d="M14 -158q37 2 74 11.5t68.5 22.5t55.5 33.5t32 45.5q-53 6 -84 43t-31 92q0 76 50 127t124 51q72 0 104.5 -50t32.5 -124q0 -70 -23.5 -135t-74.5 -119.5t-129 -89.5t-184 -43zM492 -158q37 2 74.5 11.5t69.5 22.5t54.5 33.5t32.5 45.5q-53 6 -85 43t-32 92 q0 76 50.5 127t123.5 51q72 0 106 -50t34 -124q0 -70 -25 -135t-75 -119.5t-129 -89.5t-185 -43z" />
<glyph unicode="&#x2022;" d="M356 643q0 57 19.5 110.5t55.5 94.5t87 64.5t117 23.5q63 0 115.5 -23.5t88 -64.5t55 -94.5t19.5 -110.5q0 -59 -19.5 -111.5t-55 -93.5t-88 -64.5t-115.5 -23.5q-66 0 -117 23.5t-87 64.5t-55.5 93.5t-19.5 111.5z" />
<glyph unicode="&#x2026;" d="M51 90q0 70 39 111t92 41q49 0 80 -29t31 -84q0 -72 -39 -113t-92 -41q-51 0 -81 29t-30 86zM391 90q0 70 39 111t92 41q51 0 81 -29t30 -84q0 -72 -39 -113t-92 -41q-49 0 -80 29t-31 86zM729 90q0 70 40 111t93 41q49 0 79 -29t30 -84q0 -72 -39 -113t-92 -41 q-49 0 -80 29t-31 86z" />
<glyph unicode="&#x202f;" horiz-adv-x="340" />
<glyph unicode="&#x2039;" d="M338 530l401 428l172 -102l-286 -360l131 -332l-183 -84z" />
<glyph unicode="&#x203a;" d="M268 182l287 361l-131 331l182 84l236 -450l-402 -428z" />
<glyph unicode="&#x205f;" horiz-adv-x="425" />
<glyph unicode="&#x20ac;" d="M129 406l41 167h119q4 39 11 72t15 66h-116l41 168h127q41 94 96 171.5t131 132t175 84t230 29.5q117 0 240 -41l-90 -198q-41 16 -91 23t-91 7q-133 0 -214 -55t-137 -153h435l-68 -168h-422q-10 -29 -16 -65t-10 -73h389l-70 -167h-326q10 -127 70.5 -173.5 t155.5 -46.5q53 0 117.5 11.5t119.5 31.5l10 -200q-66 -27 -145.5 -41.5t-150.5 -14.5q-84 0 -160 23.5t-133.5 75t-92 134.5t-36.5 200h-154z" />
<glyph unicode="&#x2122;" d="M238 1165v103h380v-103h-131v-434h-118v434h-131zM657 731q6 102 12.5 178t12.5 137.5t14.5 113.5t18.5 108h108l92 -279l97 279h110q8 -55 15.5 -108.5t13.5 -115t12 -137.5t13 -176h-119q0 8 -1 53t-2 103.5t-3 120t-4 102.5l-89 -238h-90l-82 238q-2 -41 -4 -102.5 t-3 -120t-2 -103.5t-1 -53h-119z" />
<glyph unicode="&#x25fc;" horiz-adv-x="962" d="M0 0v963h963v-963h-963z" />
</font>
</defs>
</svg>
